<svg xmlns="http://www.w3.org/2000/svg" xmlns:xlink="http://www.w3.org/1999/xlink" viewBox="0 0 163.3 200.3"><defs><style>.b086a6cb-3fef-43be-9b6b-bd7a2e27c233,.e2f9e39d-b771-4f69-8366-05e1ad86cbe5{fill:none;}.a85a7bbb-c449-42c6-8ab2-778467add87a{fill:#965450;}.a51e541a-6456-4109-a0c0-edf572735aad{fill:#76413b;}.bf4b01f6-3634-478e-8342-cd056512042c{fill:#5d8584;}.a95df429-f99a-44e1-b8e8-4f0465094013{clip-path:url(#abc1b5c8-1cc9-4435-a506-fe2a840a750e);}.b086a6cb-3fef-43be-9b6b-bd7a2e27c233{stroke:#fff;stroke-miterlimit:10;stroke-width:0.89px;}.b76c68e5-48a5-4d6d-b128-c4800e8d5120{fill:#fff;}.ef98a84d-d8bb-4c77-aebf-9a1047c6639d{fill:#352c38;}.a92af25f-4f35-47e6-9894-4175182927ed{fill:#ffa65b;}</style><clipPath id="abc1b5c8-1cc9-4435-a506-fe2a840a750e" transform="translate(4.7)"><path class="e2f9e39d-b771-4f69-8366-05e1ad86cbe5" d="M144.5,170c-2.2-5.9-8.4-10.6-15.8-14.5-13.1,9-31.7,14.6-52.3,14.6S37.1,164.5,24,155.5c-7.4,3.9-13.6,8.6-15.8,14.5A172.9,172.9,0,0,0,0,200.3H152.7A172.9,172.9,0,0,0,144.5,170Z"/></clipPath></defs><title>Fichier 6avatar6</title><g id="b2e624c6-bc0e-451d-940a-1591a619530d" data-name="Calque 2"><g id="b1113998-b475-4596-9c2d-965132a2a5d8" data-name="OBJECTS"><path class="a85a7bbb-c449-42c6-8ab2-778467add87a" d="M143.4,170.2c-5.9-16-42.3-23.6-48.6-28.3-8.2-5.9-5.6-25.6-5.6-25.6l-13.4.4-13.4-.4S65,136,56.9,141.9c-6.4,4.7-42.8,12.3-48.7,28.3A171,171,0,0,0,0,200.3H151.6A171,171,0,0,0,143.4,170.2Z" transform="translate(4.7)"/><path class="a51e541a-6456-4109-a0c0-edf572735aad" d="M60,138.3c6.2-.7,12.5-1.9,18-5a59.4,59.4,0,0,0,10.8-7.8,56.7,56.7,0,0,1,.4-9.2l-13.4.4-13.4-.4S64.3,130.3,60,138.3Z" transform="translate(4.7)"/><path class="bf4b01f6-3634-478e-8342-cd056512042c" d="M144.5,170c-2.2-5.9-8.4-10.6-15.8-14.5-13.1,9-31.7,14.6-52.3,14.6S37.1,164.5,24,155.5c-7.4,3.9-13.6,8.6-15.8,14.5A172.9,172.9,0,0,0,0,200.3H152.7A172.9,172.9,0,0,0,144.5,170Z" transform="translate(4.7)"/><g class="a95df429-f99a-44e1-b8e8-4f0465094013"><line class="b086a6cb-3fef-43be-9b6b-bd7a2e27c233" x1="6.7" y1="164.4" x2="154" y2="164.4"/><line class="b086a6cb-3fef-43be-9b6b-bd7a2e27c233" x1="6.7" y1="195.1" x2="158" y2="195.1"/><line class="b086a6cb-3fef-43be-9b6b-bd7a2e27c233" y1="180.2" x2="163.3" y2="180.2"/></g><path class="a51e541a-6456-4109-a0c0-edf572735aad" d="M53.3,85.6c-2.1-6.7-7.2-5.2-7.7-5s-5.8.9-4.9,7.8,5,10.9,8.8,9.8S55.5,92.3,53.3,85.6Z" transform="translate(4.7)"/><path class="a51e541a-6456-4109-a0c0-edf572735aad" d="M97.6,85.6c2.2-6.7,7.3-5.2,7.8-5s5.8.9,4.8,7.8-5,10.9-8.8,9.8S95.4,92.3,97.6,85.6Z" transform="translate(4.7)"/><path class="a85a7bbb-c449-42c6-8ab2-778467add87a" d="M102.1,75.1C99.4,45.7,77,47.3,74.9,47.5S50.5,45.7,47.8,75.1s10.5,48.8,27.1,47.8C91.6,123.9,104.8,104.6,102.1,75.1Z" transform="translate(4.7)"/><path class="a51e541a-6456-4109-a0c0-edf572735aad" d="M78.1,85.1a7.4,7.4,0,0,1,.4,1.4,10.3,10.3,0,0,1,.4,1.4l.6,2.9c.1,1,.3,2,.4,2.9a15.3,15.3,0,0,1,.3,3v.2l-.2.2-1.8,1.4a13.3,13.3,0,0,1-1.9,1.4l1.5-1.8,1.6-1.7v.4l-.6-2.9a28.9,28.9,0,0,0-.4-2.9c-.1-1-.1-2-.2-3s-.1-.9-.1-1.4Z" transform="translate(4.7)"/><path class="b76c68e5-48a5-4d6d-b128-c4800e8d5120" d="M62,104.2l26.5-.2S77.9,114.4,62,104.2Z" transform="translate(4.7)"/><path class="a51e541a-6456-4109-a0c0-edf572735aad" d="M68.8,109.6l.8.2a14.3,14.3,0,0,0,2,.5l1.3.2a7.7,7.7,0,0,0,1.5.2h3.2l1.7-.3a4.2,4.2,0,0,0,1.5-.4l1.4-.4,1.3-.6a9.3,9.3,0,0,0,1-.5l.7-.5.7-.4-.5.6-.7.6c-.3.2-.5.6-.9.8l-1.2.7-1.5.7-.8.3h-.8l-1.8.3H76a9.1,9.1,0,0,1-1.7-.1l-1.6-.4-1.3-.4a2.8,2.8,0,0,1-1.1-.5l-.8-.4Z" transform="translate(4.7)"/><path class="ef98a84d-d8bb-4c77-aebf-9a1047c6639d" d="M61,85.5c0,2.2.9,4,1.9,4s1.8-1.8,1.8-4-.8-4-1.8-4S61,83.3,61,85.5Z" transform="translate(4.7)"/><path class="ef98a84d-d8bb-4c77-aebf-9a1047c6639d" d="M86.3,85.5c0,2.2.8,4,1.8,4s1.8-1.8,1.8-4-.8-4-1.8-4S86.3,83.3,86.3,85.5Z" transform="translate(4.7)"/><path class="ef98a84d-d8bb-4c77-aebf-9a1047c6639d" d="M56.5,79a9,9,0,0,1,1.3-2.1l.9-.8,1.1-.8,1.4-.7a7.6,7.6,0,0,1,1.6-.3h1.6a8.3,8.3,0,0,1,1.5.4l1.2.7a7.6,7.6,0,0,1,.9.9,2.4,2.4,0,0,1,.6.8l.4.6.3.6-.6-.3-.6-.3-.9-.4-.9-.5a4.5,4.5,0,0,1-1.1-.3l-1.1-.2H62.9l-1.1.2-1.2.4-1,.4a3.1,3.1,0,0,0-1,.5l-.8.4-.7.3Z" transform="translate(4.7)"/><path class="ef98a84d-d8bb-4c77-aebf-9a1047c6639d" d="M81.9,79a6.1,6.1,0,0,1,1.3-2.1l.9-.8,1.1-.8,1.4-.7a7.6,7.6,0,0,1,1.6-.3h1.6a5.7,5.7,0,0,1,1.4.4l1.3.7a7.6,7.6,0,0,1,.9.9,2.4,2.4,0,0,1,.6.8l.4.6.3.6-.6-.3-.6-.3-.9-.4-.9-.5a4.5,4.5,0,0,1-1.1-.3l-1.1-.2H88.3l-1.1.2L86,77l-1,.4a3.1,3.1,0,0,0-1,.5l-.8.4-.7.3Z" transform="translate(4.7)"/><path class="ef98a84d-d8bb-4c77-aebf-9a1047c6639d" d="M62,42.2S45.7,36.6,48.5,29.1s15.4,2.8,15.4,2.8S42.9,13.7,53.1,8.6s22,20.1,22,20.1S54.5,3.5,73.2.2s5.1,33.6,5.1,33.6S84.9,7.7,95.6,11.4c14.2,4.9-11.7,25.7-11.7,25.7S99.8,23.5,103,26.3s-4.5,9.9-13,15.9C77.4,51,77.4,50.6,62,42.2Z" transform="translate(4.7)"/><ellipse class="a92af25f-4f35-47e6-9894-4175182927ed" cx="79.7" cy="44.7" rx="13" ry="8.5"/><path class="ef98a84d-d8bb-4c77-aebf-9a1047c6639d" d="M74.4,56.6S74.5,68.7,50,75.7c0,0,1.5,18.5-2,17.5S28.7,39.9,74.8,41.5Z" transform="translate(4.7)"/><path class="ef98a84d-d8bb-4c77-aebf-9a1047c6639d" d="M74.4,56.6s.4,12.1,24.9,19.1c0,0-1.5,18.5,2,17.5s18.8-52.4-26.5-51.7Z" transform="translate(4.7)"/><path class="ef98a84d-d8bb-4c77-aebf-9a1047c6639d" d="M81.9,67.6c-7.6-9.1-8.7-15.2-5.5-25.2l-.9-.2c-3.4,8.3-6.1,22.3,8.2,31C83.7,73.2,91.1,78.6,81.9,67.6Z" transform="translate(4.7)"/><path class="ef98a84d-d8bb-4c77-aebf-9a1047c6639d" d="M75.5,66.7c-3.6-8.9-2.9-14,2-21l-.6-.4C72.1,51,66.5,61.2,75.5,71.5,75.5,71.5,79.9,77.6,75.5,66.7Z" transform="translate(4.7)"/></g></g></svg>