<svg xmlns="http://www.w3.org/2000/svg" viewBox="0 0 123.8 123.8"><defs><style>.ee7e100e-fc52-47d7-9934-6050285b02f4{fill:#c41900;}.addd6411-1fd8-4fbf-9970-9a7917a4c44f{fill:#fff;}</style></defs><title>Fichier 14LezzGo_delete_button</title><g id="fae4e94b-d6da-4ea6-80a2-a93c964102a6" data-name="Calque 2"><g id="e4fea14c-15e9-408e-9b65-3ef05bd449f5" data-name="Calque 1"><rect class="ee7e100e-fc52-47d7-9934-6050285b02f4" width="123.8" height="123.78" rx="9.7" transform="translate(0 123.8) rotate(-90)"/><g id="f24c949f-2cf9-41fb-bb17-d3a93f74258e" data-name=" 01 align center"><path class="addd6411-1fd8-4fbf-9970-9a7917a4c44f" d="M89.2,40.1H75.5V34.6a5.5,5.5,0,0,0-5.4-5.5H53.7a5.5,5.5,0,0,0-5.5,5.5v5.5H34.6v5.4h5.5V86.4a8.1,8.1,0,0,0,8.1,8.2H75.5a8.1,8.1,0,0,0,8.2-8.2V45.5h5.5ZM53.7,34.6H70.1v5.5H53.7ZM78.3,86.4a2.8,2.8,0,0,1-2.8,2.8H48.2a2.7,2.7,0,0,1-2.7-2.8V45.5H78.3Z"/><rect class="addd6411-1fd8-4fbf-9970-9a7917a4c44f" x="53.7" y="56.4" width="5.5" height="21.83"/><rect class="addd6411-1fd8-4fbf-9970-9a7917a4c44f" x="64.6" y="56.4" width="5.5" height="21.83"/></g></g></g></svg>