<svg xmlns="http://www.w3.org/2000/svg" xmlns:xlink="http://www.w3.org/1999/xlink" viewBox="0 0 157 165.4"><defs><style>.e8624f4d-81b8-48d3-ac7e-1864fcddaf71{fill:none;}.ef9b71b0-b455-4d11-9bc8-0cd4bb0aee9d{fill:#edcfb7;}.b9cac1ba-7faa-4624-bda9-60e9a88c1855{fill:#f19c7c;}.a24c6fe1-137f-4c15-a6b4-e1a81391f62f{fill:#d88971;}.fed0936d-28fb-4a0e-a781-a6fa552a55a3{fill:#765e69;}.a1ddea7a-c3f1-42e7-b3dd-540d0ebfecf7{clip-path:url(#f6a15a98-422b-47ff-bf5f-11403b919deb);}.b0a56b2b-3f21-42ac-9c62-1de3fbece630{fill:#ffa65b;}.ea2f0e6d-ecd9-452a-8b45-990ff56b0036{fill:#fddec0;}.a97dc3b1-7b09-41df-83b4-ffa599072eb3{fill:#b26e59;}.aaf7dae7-4604-4a49-aeb2-c9c8e2d511be{fill:#fff;}.e5ef0727-fee6-4763-b564-589d0e4ae979{fill:#352c38;}</style><clipPath id="f6a15a98-422b-47ff-bf5f-11403b919deb" transform="translate(4.2)"><path class="e8624f4d-81b8-48d3-ac7e-1864fcddaf71" d="M144.5,135.1c-5.4-14.5-35.7-22.2-46.3-27h.2c-4.7-2.5-5.8-9.3-5.8-9.3l-33.7,1.6c-1.2,5.2-6.2,8.5-6.2,8.5h.1C41,113.7,13.4,121.3,8.2,135.1A172.9,172.9,0,0,0,0,165.4H152.7A172.9,172.9,0,0,0,144.5,135.1Z"/></clipPath></defs><title>Fichier 5avatar5</title><g id="b8a65f96-5ab6-4f1c-9f68-fd3e03b4ff5b" data-name="Calque 2"><g id="b4a611ff-8724-4e37-97d7-bd9f1214c07f" data-name="OBJECTS"><path class="ef9b71b0-b455-4d11-9bc8-0cd4bb0aee9d" d="M67.9,97.5s-7.7,2-13.4-2l1,2.7s-12-5.4-13-27,7-21.4,7-21.4S71.5,79.8,67.9,97.5Z" transform="translate(4.2)"/><path class="ef9b71b0-b455-4d11-9bc8-0cd4bb0aee9d" d="M118.5,63.8s4.5,19-12.5,27V84.3s-4,12-21,14-8.5-23.5-8.5-23.5l8.5-22,33.5,9" transform="translate(4.2)"/><path class="b9cac1ba-7faa-4624-bda9-60e9a88c1855" d="M143.4,135.3c-5.9-16-42.3-23.6-48.6-28.2-8.2-6-5.6-25.7-5.6-25.7l-13.4.4-13.4-.4s2.6,19.7-5.5,25.7c-6.4,4.6-42.8,12.2-48.7,28.2A171,171,0,0,0,0,165.4H151.6A171,171,0,0,0,143.4,135.3Z" transform="translate(4.2)"/><path class="a24c6fe1-137f-4c15-a6b4-e1a81391f62f" d="M60,103.4c6.2-.7,12.5-1.9,18-5a59.4,59.4,0,0,0,10.8-7.8,56.7,56.7,0,0,1,.4-9.2l-13.4.4-13.4-.4S64.3,95.4,60,103.4Z" transform="translate(4.2)"/><path class="fed0936d-28fb-4a0e-a781-a6fa552a55a3" d="M144.5,135.1c-5.4-14.5-35.7-22.2-46.3-27h.2c-4.7-2.5-5.8-9.3-5.8-9.3l-33.7,1.6c-1.2,5.2-6.2,8.5-6.2,8.5h.1C41,113.7,13.4,121.3,8.2,135.1A172.9,172.9,0,0,0,0,165.4H152.7A172.9,172.9,0,0,0,144.5,135.1Z" transform="translate(4.2)"/><g class="a1ddea7a-c3f1-42e7-b3dd-540d0ebfecf7"><path class="b0a56b2b-3f21-42ac-9c62-1de3fbece630" d="M114.2,103.6l4,3.9c.3.3,1,.1,1.3-.2l4.8-4.6c.2-.2.1-.5-.2-.6a1.2,1.2,0,0,0-1,.3l-4.8,4.6h1.3l-4-3.9c-.4-.4-1.8.2-1.4.6Z" transform="translate(4.2)"/><path class="b0a56b2b-3f21-42ac-9c62-1de3fbece630" d="M97.3,103.6l4,3.9c.3.2,1,0,1.3-.2l4.7-4.6c.3-.2.2-.4-.1-.5a1.2,1.2,0,0,0-1,.3l-4.8,4.6,1.3-.2-4-3.8c-.4-.4-1.7.2-1.4.5Z" transform="translate(4.2)"/><path class="b0a56b2b-3f21-42ac-9c62-1de3fbece630" d="M80.4,103.6l4,3.9c.3.3,1,.1,1.3-.2l4.7-4.6c.3-.2.2-.5-.1-.5a1.2,1.2,0,0,0-1,.2L84.5,107h1.3l-4-3.9c-.4-.3-1.8.2-1.4.6Z" transform="translate(4.2)"/><path class="b0a56b2b-3f21-42ac-9c62-1de3fbece630" d="M63.5,103.6l4,3.9c.3.3,1,.1,1.3-.2l4.7-4.6c.3-.2.2-.5-.1-.5a1.5,1.5,0,0,0-1.1.2L67.6,107h1.2L64.9,103c-.4-.3-1.8.2-1.4.6Z" transform="translate(4.2)"/><path class="b0a56b2b-3f21-42ac-9c62-1de3fbece630" d="M46.6,103.7l4,3.8a1.1,1.1,0,0,0,1.3-.1l4.7-4.6c.3-.3.2-.6-.1-.7a1.4,1.4,0,0,0-1.1.3L50.6,107h1.3l-4-3.9a.9.9,0,0,0-1,0c-.1.1-.6.4-.3.7Z" transform="translate(4.2)"/><path class="b0a56b2b-3f21-42ac-9c62-1de3fbece630" d="M29.7,103.6l3.9,3.8c.3.3,1.2-.1,1.4-.3l4.8-4.6c.2-.2-.2-.2-.4-.2a1.4,1.4,0,0,0-.9.3l-4.8,4.7,1.3-.4-4-3.8c-.2-.3-1.5.3-1.3.5Z" transform="translate(4.2)"/><path class="b0a56b2b-3f21-42ac-9c62-1de3fbece630" d="M12.8,103.7l3.9,3.8a1,1,0,0,0,1.3-.1l4.8-4.6c.3-.3.1-.6-.2-.7a1,1,0,0,0-1,.3L16.8,107h1.3l-4-3.9a1.1,1.1,0,0,0-1-.1c-.2.1-.6.5-.3.8Z" transform="translate(4.2)"/><path class="b0a56b2b-3f21-42ac-9c62-1de3fbece630" d="M-4.2,103.6l4,3.9a1.5,1.5,0,0,0,1.3-.2l4.8-4.6c.2-.2.2-.4-.1-.5a1.4,1.4,0,0,0-1.1.3l-4.8,4.6,1.3-.2-4-3.8c-.3-.4-1.7.2-1.4.5Z" transform="translate(4.2)"/><path class="b0a56b2b-3f21-42ac-9c62-1de3fbece630" d="M131.1,103.6l4,3.9c.3.2,1,0,1.3-.2l4.8-4.6c.2-.2.1-.4-.2-.5a1.2,1.2,0,0,0-1,.3l-4.8,4.6,1.3-.2-4-3.8c-.3-.4-1.7.2-1.4.5Z" transform="translate(4.2)"/><path class="b0a56b2b-3f21-42ac-9c62-1de3fbece630" d="M114.2,103.6l4,3.9c.3.3,1.1-.1,1.4-.3l4.7-4.6c.3-.3-.2-.4-.3-.4a1.5,1.5,0,0,0-1,.4l-4.8,4.6,1.4-.3-4-3.8c-.3-.3-1.7.2-1.4.5Z" transform="translate(4.2)"/><path class="b0a56b2b-3f21-42ac-9c62-1de3fbece630" d="M97.3,103.6l4,3.9c.3.3,1,.1,1.3-.2l4.8-4.6c.2-.2.1-.5-.2-.6a1.2,1.2,0,0,0-1,.3l-4.8,4.6h1.3l-4-3.9c-.4-.3-1.8.2-1.4.6Z" transform="translate(4.2)"/><path class="b0a56b2b-3f21-42ac-9c62-1de3fbece630" d="M80.5,103.8l4,3.8c.3.3.9.1,1.2-.2l4.8-4.6a.4.4,0,0,0-.2-.7,1.1,1.1,0,0,0-1.1.2L84.4,107l1.2-.2-4-3.9c-.4-.5-1.7.3-1.1.9Z" transform="translate(4.2)"/><path class="b0a56b2b-3f21-42ac-9c62-1de3fbece630" d="M63.5,103.6l4,3.8c.2.3,1.1,0,1.3-.3l4.8-4.6c.3-.2-.2-.2-.3-.2a1.5,1.5,0,0,0-1,.3l-4.8,4.6,1.4-.3-4-3.8c-.3-.3-1.7.3-1.4.5Z" transform="translate(4.2)"/><path class="b0a56b2b-3f21-42ac-9c62-1de3fbece630" d="M46.6,103.7l4,3.8a1.1,1.1,0,0,0,1.3-.1l4.7-4.7c.3-.2.2-.5-.1-.6a1.4,1.4,0,0,0-1.1.3L50.6,107h1.3l-4-3.9a.9.9,0,0,0-1,0c-.1.1-.6.4-.3.7Z" transform="translate(4.2)"/><path class="b0a56b2b-3f21-42ac-9c62-1de3fbece630" d="M29.8,103.8l4,3.8c.2.3.8.2,1,0l4.8-4.7c.7-.7-.4-1.2-1-.7l-4.8,4.6h1.1l-4-3.8c-.5-.5-1.7.3-1.1.9Z" transform="translate(4.2)"/><path class="b0a56b2b-3f21-42ac-9c62-1de3fbece630" d="M12.8,103.7l3.9,3.8a.9.9,0,0,0,1.3-.1l4.8-4.6c.3-.3.1-.6-.2-.7a1,1,0,0,0-1,.3L16.8,107h1.3l-4-3.9a1.1,1.1,0,0,0-1-.1c-.2.1-.6.5-.3.8Z" transform="translate(4.2)"/><path class="b0a56b2b-3f21-42ac-9c62-1de3fbece630" d="M-4.1,103.7l3.9,3.8a.9.9,0,0,0,1.3-.1l4.8-4.6c.3-.3.1-.6-.2-.7a1,1,0,0,0-1,.3L-.1,107H1.2l-4-3.9a1.2,1.2,0,0,0-1-.1c-.2.1-.6.5-.3.8Z" transform="translate(4.2)"/><path class="b0a56b2b-3f21-42ac-9c62-1de3fbece630" d="M131.2,103.8l4,3.8a.9.9,0,0,0,1.1,0l4.8-4.7c.7-.6-.5-1.2-1-.7l-4.8,4.6h1.1l-4-3.8c-.5-.5-1.8.3-1.2.9Z" transform="translate(4.2)"/><path class="b0a56b2b-3f21-42ac-9c62-1de3fbece630" d="M114.2,160.2l4,3.8c.3.4,1.1,0,1.4-.2l4.7-4.7c.3-.2-.2-.3-.3-.3a1.2,1.2,0,0,0-1,.4l-4.8,4.6,1.4-.3-4-3.8c-.3-.4-1.7.2-1.4.5Z" transform="translate(4.2)"/><path class="b0a56b2b-3f21-42ac-9c62-1de3fbece630" d="M97.3,160.2l4,3.9c.3.3,1,.1,1.3-.2l4.8-4.6c.2-.2.1-.5-.2-.6a1.2,1.2,0,0,0-1,.3l-4.8,4.6h1.3l-4-3.9c-.4-.3-1.8.2-1.4.6Z" transform="translate(4.2)"/><path class="b0a56b2b-3f21-42ac-9c62-1de3fbece630" d="M80.4,160.2l4,3.8c.3.3,1.1,0,1.3-.3l4.8-4.6c.3-.2-.2-.3-.3-.3a1.2,1.2,0,0,0-1,.4l-4.8,4.6,1.4-.3-4-3.8c-.3-.3-1.7.2-1.4.5Z" transform="translate(4.2)"/><path class="b0a56b2b-3f21-42ac-9c62-1de3fbece630" d="M63.5,160.2l4,3.8c.2.3,1.1-.1,1.3-.3l4.8-4.6c.3-.2-.2-.3-.3-.3a2.3,2.3,0,0,0-1,.4l-4.8,4.6,1.4-.3-4-3.8c-.3-.3-1.7.2-1.4.5Z" transform="translate(4.2)"/><path class="b0a56b2b-3f21-42ac-9c62-1de3fbece630" d="M46.6,160.2l3.9,3.8c.3.2,1.2-.1,1.4-.3l4.8-4.6c.2-.2-.2-.2-.3-.2a1.7,1.7,0,0,0-1,.3l-4.8,4.6,1.3-.3L48,159.7c-.2-.2-.8,0-1,.1s-.6.2-.4.4Z" transform="translate(4.2)"/><path class="b0a56b2b-3f21-42ac-9c62-1de3fbece630" d="M29.7,160.2l3.9,3.8c.3.3,1.1.1,1.3-.1l4.8-4.7c.2-.2.2-.3-.1-.4a1.2,1.2,0,0,0-1.1.3l-4.7,4.6,1.2-.2-4-3.8c-.3-.4-1.7.2-1.3.5Z" transform="translate(4.2)"/><path class="b0a56b2b-3f21-42ac-9c62-1de3fbece630" d="M12.8,160.2l3.9,3.9a1.1,1.1,0,0,0,1.3-.2l4.8-4.6a.4.4,0,0,0-.1-.6,1.4,1.4,0,0,0-1.1.3l-4.8,4.6h1.3l-4-3.9c-.4-.4-1.8.2-1.3.6Z" transform="translate(4.2)"/><path class="b0a56b2b-3f21-42ac-9c62-1de3fbece630" d="M-4.2,160.2l4,3.8c.3.3,1.2-.1,1.4-.3L6,159.1c.2-.2-.2-.3-.4-.3l-1,.4-4.8,4.6,1.4-.3-4-3.8c-.3-.3-1.6.2-1.4.5Z" transform="translate(4.2)"/><path class="b0a56b2b-3f21-42ac-9c62-1de3fbece630" d="M131.1,160.2l4,3.9c.3.3,1,.1,1.3-.2l4.8-4.6c.2-.2.1-.5-.2-.6a1.2,1.2,0,0,0-1,.3l-4.8,4.6h1.3l-4-3.9c-.4-.4-1.8.2-1.4.6Z" transform="translate(4.2)"/><path class="b0a56b2b-3f21-42ac-9c62-1de3fbece630" d="M123,145.5l4,3.8c.3.4,1,.2,1.3-.1l4.7-4.6c.3-.3.2-.6-.1-.7a1.4,1.4,0,0,0-1.1.3l-4.7,4.6h1.2l-3.9-3.8c-.5-.5-1.9.1-1.4.6Z" transform="translate(4.2)"/><path class="b0a56b2b-3f21-42ac-9c62-1de3fbece630" d="M106.1,145.5l4,3.8c.3.4.9.2,1.3-.1l4.7-4.6c.3-.2.1-.6-.1-.7a1.1,1.1,0,0,0-1.1.3l-4.8,4.6h1.3l-4-3.9a1.1,1.1,0,0,0-1-.1c-.2.1-.6.5-.3.8Z" transform="translate(4.2)"/><path class="b0a56b2b-3f21-42ac-9c62-1de3fbece630" d="M89.2,145.5l4,3.8c.3.4.9.2,1.2-.1l4.8-4.6c.3-.3.2-.6-.1-.7a1.4,1.4,0,0,0-1.1.3l-4.8,4.6h1.3l-4-3.8c-.4-.5-1.8.1-1.3.6Z" transform="translate(4.2)"/><path class="b0a56b2b-3f21-42ac-9c62-1de3fbece630" d="M72.2,145.4l4,3.9c.4.3,1.1,0,1.4-.3l4.8-4.6c.2-.3-.2-.4-.4-.4a2.1,2.1,0,0,0-1,.4L76.2,149l1.4-.3-4-3.8c-.3-.3-1.7.2-1.4.5Z" transform="translate(4.2)"/><path class="b0a56b2b-3f21-42ac-9c62-1de3fbece630" d="M55.3,145.4l4,3.9c.3.2,1.2-.1,1.4-.3l4.8-4.7c.2-.2-.2-.2-.4-.2a1.4,1.4,0,0,0-1,.4l-4.8,4.6,1.4-.3-4-3.9c-.3-.2-1.6.3-1.4.5Z" transform="translate(4.2)"/><path class="b0a56b2b-3f21-42ac-9c62-1de3fbece630" d="M38.4,145.4l4,3.9c.3.2,1.1-.1,1.4-.3l4.8-4.7c.2-.2-.3-.2-.4-.2a1.9,1.9,0,0,0-1,.3l-4.8,4.7,1.4-.3-4-3.9c-.3-.3-1.6.3-1.4.5Z" transform="translate(4.2)"/><path class="b0a56b2b-3f21-42ac-9c62-1de3fbece630" d="M21.5,145.5l4,3.8c.3.3,1,.1,1.3-.2l4.8-4.6c.2-.2.1-.4-.2-.5a1,1,0,0,0-1,.3l-4.8,4.6,1.3-.2-4-3.8c-.4-.4-1.8.2-1.4.6Z" transform="translate(4.2)"/><path class="b0a56b2b-3f21-42ac-9c62-1de3fbece630" d="M4.6,145.5l4,3.8c.3.3,1,.1,1.3-.2l4.8-4.6c.2-.2.1-.4-.2-.5a1,1,0,0,0-1,.3l-4.8,4.6,1.3-.2-4-3.8c-.4-.4-1.8.2-1.4.6Z" transform="translate(4.2)"/><path class="b0a56b2b-3f21-42ac-9c62-1de3fbece630" d="M139.9,145.5l4,3.8c.3.3,1,.1,1.3-.2l4.7-4.6c.3-.2.2-.4-.1-.5a1,1,0,0,0-1,.3l-4.8,4.6,1.3-.2-4-3.8c-.4-.4-1.8.2-1.4.6Z" transform="translate(4.2)"/><path class="b0a56b2b-3f21-42ac-9c62-1de3fbece630" d="M114.2,131.9l4,3.9c.3.2,1,0,1.3-.2l4.8-4.6c.2-.2.1-.4-.2-.5a1,1,0,0,0-1,.3l-4.8,4.6,1.3-.2-4-3.8c-.4-.4-1.7.2-1.4.5Z" transform="translate(4.2)"/><path class="b0a56b2b-3f21-42ac-9c62-1de3fbece630" d="M97.3,131.9l4,3.9c.3.3,1,.1,1.3-.2l4.8-4.6a.3.3,0,0,0-.2-.5,1.2,1.2,0,0,0-1,.2l-4.8,4.7,1.3-.2-4-3.9c-.4-.3-1.8.2-1.4.6Z" transform="translate(4.2)"/><path class="b0a56b2b-3f21-42ac-9c62-1de3fbece630" d="M80.4,131.9l4,3.9c.3.3,1,.1,1.3-.2l4.7-4.6c.3-.2.2-.5-.1-.6a1.7,1.7,0,0,0-1,.3l-4.8,4.6h1.3l-4-3.9c-.4-.3-1.8.2-1.4.6Z" transform="translate(4.2)"/><path class="b0a56b2b-3f21-42ac-9c62-1de3fbece630" d="M63.5,131.9l4,3.8c.2.3,1.1-.1,1.3-.3l4.8-4.6c.2-.2-.2-.2-.3-.2a1.7,1.7,0,0,0-1,.3l-4.8,4.6,1.4-.3-4-3.8c-.3-.3-1.6.3-1.4.5Z" transform="translate(4.2)"/><path class="b0a56b2b-3f21-42ac-9c62-1de3fbece630" d="M46.6,131.9l4,3.9a1.3,1.3,0,0,0,1.2-.2l4.8-4.6c.2-.2.2-.4-.1-.5a1.2,1.2,0,0,0-1.1.3l-4.7,4.6,1.2-.2-4-3.8c-.3-.4-1.7.2-1.3.5Z" transform="translate(4.2)"/><path class="b0a56b2b-3f21-42ac-9c62-1de3fbece630" d="M29.7,131.9l4,3.9a.9.9,0,0,0,1.2-.2l4.8-4.6c.2-.2.2-.5-.1-.6a2,2,0,0,0-1.1.3l-4.8,4.6H35l-4-3.9c-.4-.3-1.8.2-1.3.6Z" transform="translate(4.2)"/><path class="b0a56b2b-3f21-42ac-9c62-1de3fbece630" d="M12.8,132l4,3.8c.3.4.9.2,1.2-.1l4.8-4.6c.3-.3.1-.6-.2-.7s-.7,0-1,.2l-4.8,4.7h1.3l-4-3.9a.8.8,0,0,0-1-.1c-.2.1-.6.5-.3.8Z" transform="translate(4.2)"/><path class="b0a56b2b-3f21-42ac-9c62-1de3fbece630" d="M-4.1,132l3.9,3.8a.9.9,0,0,0,1.3-.1l4.8-4.6c.3-.3.1-.6-.2-.7a.8.8,0,0,0-1,.3l-4.8,4.6H1.2l-4-3.9a1.2,1.2,0,0,0-1-.1c-.2.1-.6.5-.3.8Z" transform="translate(4.2)"/><path class="b0a56b2b-3f21-42ac-9c62-1de3fbece630" d="M131.1,131.9l4,3.9c.3.3,1,.1,1.3-.2l4.8-4.6c.2-.2.1-.5-.2-.6a1.2,1.2,0,0,0-1,.3l-4.8,4.6h1.3l-4-3.9c-.4-.4-1.8.2-1.4.6Z" transform="translate(4.2)"/><path class="b0a56b2b-3f21-42ac-9c62-1de3fbece630" d="M122.3,117.1l4,3.9c.3.2,1.2-.2,1.4-.3l4.8-4.7c.2-.2-.2-.2-.4-.2a2.1,2.1,0,0,0-1,.4l-4.7,4.6,1.3-.3-4-3.9c-.2-.2-1.5.3-1.4.5Z" transform="translate(4.2)"/><path class="b0a56b2b-3f21-42ac-9c62-1de3fbece630" d="M105.5,117.2l3.9,3.8a.9.9,0,0,0,1.3-.1l4.8-4.6c.3-.3.1-.6-.2-.7a1.2,1.2,0,0,0-1,.3l-4.8,4.6h1.3l-4-3.8a.8.8,0,0,0-1-.1c-.2.1-.6.4-.3.7Z" transform="translate(4.2)"/><path class="b0a56b2b-3f21-42ac-9c62-1de3fbece630" d="M88.5,117.2l4,3.8a.9.9,0,0,0,1.3-.1l4.8-4.6c.3-.2.1-.6-.2-.7a1,1,0,0,0-1,.3l-4.8,4.6h1.3l-4-3.9a1.2,1.2,0,0,0-1-.1c-.2.1-.6.5-.4.8Z" transform="translate(4.2)"/><path class="b0a56b2b-3f21-42ac-9c62-1de3fbece630" d="M71.6,117.1l4,3.9c.3.3,1.1,0,1.4-.3l4.8-4.6c.2-.3-.3-.4-.4-.4a1.8,1.8,0,0,0-1,.4l-4.8,4.6,1.4-.3-4-3.8c-.3-.3-1.7.2-1.4.5Z" transform="translate(4.2)"/><path class="b0a56b2b-3f21-42ac-9c62-1de3fbece630" d="M54.7,117.2l4,3.8c.3.4,1,.2,1.3-.1l4.8-4.6c.2-.3.1-.5-.2-.6a.9.9,0,0,0-1,.2l-4.8,4.7,1.3-.2-4-3.8c-.4-.4-1.8.1-1.4.6Z" transform="translate(4.2)"/><path class="b0a56b2b-3f21-42ac-9c62-1de3fbece630" d="M37.8,117.1l4,3.9c.3.3,1.1-.1,1.4-.3l4.7-4.6c.3-.3-.2-.4-.3-.4a2.3,2.3,0,0,0-1,.4l-4.8,4.6,1.4-.3-4-3.8c-.3-.3-1.7.2-1.4.5Z" transform="translate(4.2)"/><path class="b0a56b2b-3f21-42ac-9c62-1de3fbece630" d="M20.9,117.1l4,3.9c.3.3,1.1-.1,1.3-.3l4.8-4.6c.3-.3-.2-.3-.3-.3a1.5,1.5,0,0,0-1,.3l-4.8,4.7,1.4-.3-4-3.9c-.3-.3-1.7.3-1.4.5Z" transform="translate(4.2)"/><path class="b0a56b2b-3f21-42ac-9c62-1de3fbece630" d="M4,117.2,8,121a1.1,1.1,0,0,0,1.3-.1l4.7-4.6c.3-.3.2-.5-.1-.6a1.1,1.1,0,0,0-1.1.3l-4.7,4.6,1.2-.2-3.9-3.8c-.5-.4-1.8.2-1.4.6Z" transform="translate(4.2)"/><path class="b0a56b2b-3f21-42ac-9c62-1de3fbece630" d="M139.3,117.2l4,3.8c.2.3,1,0,1.2-.2l4.8-4.6c.2-.2.2-.4-.1-.5a2.3,2.3,0,0,0-1.1.3l-4.7,4.6,1.2-.2-4-3.8c-.3-.3-1.7.2-1.3.6Z" transform="translate(4.2)"/></g><path class="ea2f0e6d-ecd9-452a-8b45-990ff56b0036" d="M65.9,13.2S49-2.2,37.5,18.3s3.5,53-8,67c0,0,12,13,16-7S51,25.8,51,25.8Z" transform="translate(4.2)"/><path class="ea2f0e6d-ecd9-452a-8b45-990ff56b0036" d="M63,15.3l-.8-.8-2.4-2.1A17.9,17.9,0,0,0,55.6,10a10.8,10.8,0,0,0-6-.7,12.3,12.3,0,0,0-6.3,3.2,32.6,32.6,0,0,0-5.1,6.4c-.3.7-.7,1.3-1,2l-.9,1.9a31.2,31.2,0,0,0-1.5,4.3,51.2,51.2,0,0,0-1.6,9c-.3,3-.4,6.1-.5,9.2v9a102.4,102.4,0,0,1-.6,16.1,33.2,33.2,0,0,1-1.3,6.3,22.8,22.8,0,0,1-1.9,4.6l-.5.9-.5.7L27,84l-.7.8.7-.9.7-1.1.4-.8a2,2,0,0,0,.4-.8,21.4,21.4,0,0,0,1.6-4.7,48.4,48.4,0,0,0,.9-6.2c.2-2.3.2-4.9.2-7.5s-.2-5.5-.2-8.5-.2-5.9-.2-9,.1-6.3.4-9.4A57.8,57.8,0,0,1,33,26.5a32.9,32.9,0,0,1,1.6-4.4l1-2.1,1.1-1.9a28.5,28.5,0,0,1,5.6-6.7,14,14,0,0,1,7.1-3.3,12,12,0,0,1,6.5,1.2,21.8,21.8,0,0,1,4.2,2.8c1,.9,1.7,1.8,2.2,2.3Z" transform="translate(4.2)"/><path class="a24c6fe1-137f-4c15-a6b4-e1a81391f62f" d="M51.5,49.4c-2.1-6.7-7.2-5.1-7.7-5s-5.8.9-4.9,7.9,5,10.8,8.8,9.7S53.7,56.2,51.5,49.4Z" transform="translate(4.2)"/><path class="a24c6fe1-137f-4c15-a6b4-e1a81391f62f" d="M97.6,50.7c2.2-6.7,7.3-5.1,7.8-5s5.8.9,4.8,7.8-5,10.9-8.8,9.8S95.4,57.5,97.6,50.7Z" transform="translate(4.2)"/><path class="b9cac1ba-7faa-4624-bda9-60e9a88c1855" d="M102.1,40.2C99.4,10.8,77,12.4,74.9,12.6S50.5,10.8,47.8,40.2,58.3,89,74.9,88C91.6,89,104.8,69.7,102.1,40.2Z" transform="translate(4.2)"/><path class="a97dc3b1-7b09-41df-83b4-ffa599072eb3" d="M78.1,50.2a7.4,7.4,0,0,1,.4,1.4,8.3,8.3,0,0,1,.4,1.5l.6,2.8c.1,1,.3,2,.4,3a13.6,13.6,0,0,1,.3,2.9V62l-.2.2-1.8,1.4A13.3,13.3,0,0,1,76.4,65l1.5-1.8,1.6-1.7v.4L78.8,59a28.9,28.9,0,0,0-.4-2.9c-.1-1-.1-2-.2-2.9s-.1-1-.1-1.5Z" transform="translate(4.2)"/><path class="aaf7dae7-4604-4a49-aeb2-c9c8e2d511be" d="M62,69.4l26.5-.3S77.9,79.5,62,69.4Z" transform="translate(4.2)"/><path class="a97dc3b1-7b09-41df-83b4-ffa599072eb3" d="M68.8,74.7l.8.2a14.3,14.3,0,0,0,2,.5l1.3.2a7.7,7.7,0,0,0,1.5.2h3.2l1.7-.2,1.5-.4,1.4-.5,1.3-.6a3.1,3.1,0,0,0,1-.5l.7-.5.7-.4-.5.6-.7.6a3.4,3.4,0,0,1-.9.8l-1.2.7-1.5.7-.8.3h-.8l-1.8.3H76a4.7,4.7,0,0,1-1.7-.1l-1.6-.3L71.4,76a2.8,2.8,0,0,1-1.1-.5l-.8-.4Z" transform="translate(4.2)"/><path class="e5ef0727-fee6-4763-b564-589d0e4ae979" d="M61,50.6c0,2.3.9,4.1,1.9,4.1s1.8-1.8,1.8-4.1-.8-4-1.8-4S61,48.4,61,50.6Z" transform="translate(4.2)"/><path class="e5ef0727-fee6-4763-b564-589d0e4ae979" d="M86.3,50.6c0,2.3.8,4.1,1.8,4.1s1.8-1.8,1.8-4.1-.8-4-1.8-4S86.3,48.4,86.3,50.6Z" transform="translate(4.2)"/><path class="e5ef0727-fee6-4763-b564-589d0e4ae979" d="M56.5,44.1A9,9,0,0,1,57.8,42l.9-.8,1.1-.8a3.5,3.5,0,0,1,1.4-.6,4.2,4.2,0,0,1,1.6-.4h1.6a8.3,8.3,0,0,1,1.5.4l1.2.8a3.4,3.4,0,0,1,.9.8c.2.3.5.5.6.8a2.5,2.5,0,0,1,.4.7,2.8,2.8,0,0,1,.3.6l-.6-.4-.6-.3-.9-.4c-.3-.1-.6-.4-.9-.4l-1.1-.4-1.1-.2H62.9c-.3-.1-.7.1-1.1.1l-1.2.4-1,.4-1,.5-.8.4-.7.4Z" transform="translate(4.2)"/><path class="e5ef0727-fee6-4763-b564-589d0e4ae979" d="M81.9,44.1A6.1,6.1,0,0,1,83.2,42l.9-.8,1.1-.8a3.5,3.5,0,0,1,1.4-.6,4.2,4.2,0,0,1,1.6-.4h1.6a5.7,5.7,0,0,1,1.4.4,5.7,5.7,0,0,1,1.3.8,3.4,3.4,0,0,1,.9.8c.2.3.5.5.6.8a2.5,2.5,0,0,1,.4.7l.3.6-.6-.4-.6-.3-.9-.4c-.3-.1-.6-.4-.9-.4l-1.1-.4-1.1-.2H88.3c-.4-.1-.7.1-1.1.1l-1.2.4-1,.4L84,43l-.8.4-.7.4Z" transform="translate(4.2)"/><path class="ea2f0e6d-ecd9-452a-8b45-990ff56b0036" d="M61.5,20.8S73,8.8,80,18.3s19,45,39,47.5c0,0,3.9-41.3-14.1-57.3S61,1.8,61.5,20.8Z" transform="translate(4.2)"/><path class="ea2f0e6d-ecd9-452a-8b45-990ff56b0036" d="M110.5,66.8h-.9a12.3,12.3,0,0,1-2.5-.6,19.8,19.8,0,0,1-7.9-4.8,31.1,31.1,0,0,1-4.1-4.6,51.3,51.3,0,0,1-3.8-5.7,66.5,66.5,0,0,1-3.4-6.5c-1.1-2.2-2.1-4.5-3.1-6.8s-1.9-4.7-2.8-7-1.8-4.5-2.6-6.7a43,43,0,0,0-3-5.7,6.8,6.8,0,0,0-4.2-3,8.4,8.4,0,0,0-4.5.6,15.3,15.3,0,0,0-3.4,1.8l-2.8,2,.6-.7a14.9,14.9,0,0,1,1.8-1.8,11.3,11.3,0,0,1,3.3-2.4,8.5,8.5,0,0,1,5.3-1.3,7.2,7.2,0,0,1,3.1,1.1A11.8,11.8,0,0,1,78.3,17a36,36,0,0,1,3.5,6.1c1,2.1,1.9,4.4,2.8,6.7s1.9,4.5,2.9,6.8,1.9,4.6,2.9,6.8,2,4.4,3.1,6.5a61.1,61.1,0,0,0,3.3,5.7,38.4,38.4,0,0,0,3.6,4.7,22.5,22.5,0,0,0,3.6,3.4,17.3,17.3,0,0,0,5.7,2.9Z" transform="translate(4.2)"/><path class="ea2f0e6d-ecd9-452a-8b45-990ff56b0036" d="M61.5,20.8S64.6,17,63,15.3c-3.6-3.6-16.3-6.1-18,8-2.5,20.5,8,53.5-9.5,71,0,0,5.5,6.5,11.5-2.5,0,0-2,6-5.5,6.5,0,0,8.5,1.5,10.5-10.5S48,21.8,61.5,20.8Z" transform="translate(4.2)"/></g></g></svg>