<svg xmlns="http://www.w3.org/2000/svg" viewBox="0 0 152.7 175.4"><defs><style>.ace6473c-f96b-4f0c-9317-105e6512e66e{fill:#f19c7c;}.a246a247-278c-4626-a1a6-7de89035a225{fill:#d88971;}.b4e45314-c1e8-4dd8-9de7-2e53624879f1{fill:#5d8584;}.e4a612c9-39ac-4c03-bb8c-bee30f064329{fill:#7badaa;}.f3c79a8b-4844-4030-89ea-58dce881d1de{fill:#b26e59;}.b46e4dc2-d0a0-4960-af9e-4851315a4bb8{fill:#fff;}.af7ae67e-3a26-4227-9c2a-d207f478aee1,.be57f666-6795-4791-b98d-0b44150b4f69{fill:#352c38;}.a840b545-e63c-452e-a4a2-7e3945470e81{fill:#fddec0;}.af7ae67e-3a26-4227-9c2a-d207f478aee1{opacity:0.1;}</style></defs><title>Fichier 1avatar1</title><g id="b00747f8-fe8e-4595-955a-405f812ee49d" data-name="Calque 2"><g id="b6a35921-678a-431d-96df-bc4ee69b6ded" data-name="OBJECTS"><path class="ace6473c-f96b-4f0c-9317-105e6512e66e" d="M143.4,145.3c-5.9-16-42.3-23.6-48.6-28.2-8.2-6-5.6-25.7-5.6-25.7l-13.4.4-13.4-.4s2.6,19.7-5.5,25.7c-6.4,4.6-42.8,12.2-48.7,28.2A171,171,0,0,0,0,175.4H151.6A171,171,0,0,0,143.4,145.3Z"/><path class="a246a247-278c-4626-a1a6-7de89035a225" d="M60,113.4c6.2-.6,12.5-1.9,18-5a59.4,59.4,0,0,0,10.8-7.8,56.7,56.7,0,0,1,.4-9.2l-13.4.4-13.4-.4S64.3,105.4,60,113.4Z"/><path class="b4e45314-c1e8-4dd8-9de7-2e53624879f1" d="M144.5,145.1c-5.8-15.6-40.2-23.3-48.3-28a46.2,46.2,0,0,1-42.5,1.4C42.4,123.3,13.5,131,8.2,145.1A172.9,172.9,0,0,0,0,175.4H152.7A172.9,172.9,0,0,0,144.5,145.1Z"/><path class="e4a612c9-39ac-4c03-bb8c-bee30f064329" d="M53.7,118.5s4.9-3.2,6-8.1l32.2-1.5s1.1,6.4,5.5,8.9C97.4,117.8,73.9,131.2,53.7,118.5Z"/><path class="a246a247-278c-4626-a1a6-7de89035a225" d="M53.3,60.7c-2.1-6.7-7.2-5.1-7.7-5s-5.8.9-4.9,7.9,5,10.8,8.8,9.7S55.5,67.5,53.3,60.7Z"/><path class="a246a247-278c-4626-a1a6-7de89035a225" d="M97.6,60.7c2.2-6.7,7.3-5.1,7.8-5s5.8.9,4.8,7.9-5,10.8-8.8,9.7S95.4,67.5,97.6,60.7Z"/><path class="ace6473c-f96b-4f0c-9317-105e6512e66e" d="M102.1,50.2C99.4,20.8,77,22.4,74.9,22.7S50.5,20.8,47.8,50.2,58.3,99,74.9,98C91.6,99,104.8,79.7,102.1,50.2Z"/><path class="f3c79a8b-4844-4030-89ea-58dce881d1de" d="M78.1,60.2a10.3,10.3,0,0,1,.4,1.4,8.3,8.3,0,0,1,.4,1.5l.6,2.9c.1.9.3,1.9.4,2.9a13.6,13.6,0,0,1,.3,2.9V72l-.2.2-1.8,1.5L76.4,75l1.5-1.8,1.6-1.7v.4L78.8,69c-.1-.9-.2-1.9-.4-2.9s-.1-1.9-.2-2.9-.1-1-.1-1.5Z"/><path class="b46e4dc2-d0a0-4960-af9e-4851315a4bb8" d="M62,79.4l26.5-.3S77.9,89.5,62,79.4Z"/><path class="f3c79a8b-4844-4030-89ea-58dce881d1de" d="M68.8,84.7l.8.2a14.3,14.3,0,0,0,2,.5l1.3.3h4.7l1.7-.2,1.5-.4,1.4-.5,1.3-.6a3.1,3.1,0,0,0,1-.5l.7-.5.7-.3-.5.5-.7.6a3.4,3.4,0,0,1-.9.8l-1.2.7-1.5.7-.8.3h-.8l-1.8.3H76l-1.7-.2a7.6,7.6,0,0,1-1.6-.3L71.4,86a2.8,2.8,0,0,1-1.1-.5l-.8-.4Z"/><path class="be57f666-6795-4791-b98d-0b44150b4f69" d="M61,60.7c0,2.2.9,4,1.9,4s1.8-1.8,1.8-4-.8-4.1-1.8-4.1S61,58.4,61,60.7Z"/><path class="be57f666-6795-4791-b98d-0b44150b4f69" d="M86.3,60.7c0,2.2.8,4,1.8,4s1.8-1.8,1.8-4-.8-4.1-1.8-4.1S86.3,58.4,86.3,60.7Z"/><path class="be57f666-6795-4791-b98d-0b44150b4f69" d="M56.5,54.1A9,9,0,0,1,57.8,52l.9-.8,1.1-.8a5.9,5.9,0,0,1,1.4-.6l1.6-.4h1.6a4.4,4.4,0,0,1,1.5.5,3.7,3.7,0,0,1,1.2.7,3.4,3.4,0,0,1,.9.8c.2.3.5.5.6.8a2.5,2.5,0,0,1,.4.7,2.8,2.8,0,0,1,.3.6l-.6-.3-.6-.4-.9-.4-.9-.4-1.1-.4a3.7,3.7,0,0,0-1.1-.1H61.8l-1.2.4-1,.4-1,.5-.8.4-.7.4Z"/><path class="be57f666-6795-4791-b98d-0b44150b4f69" d="M81.9,54.1A6.1,6.1,0,0,1,83.2,52l.9-.8,1.1-.8a5.9,5.9,0,0,1,1.4-.6l1.6-.4h1.6a3.4,3.4,0,0,1,1.4.5,3.3,3.3,0,0,1,1.3.7,3.4,3.4,0,0,1,.9.8c.2.3.5.5.6.8a2.5,2.5,0,0,1,.4.7l.3.6-.6-.3-.6-.4-.9-.4-.9-.4-1.1-.4c-.4,0-.7-.2-1.1-.1H87.2l-1.2.4-1,.4L84,53l-.8.4-.7.4Z"/><path class="a840b545-e63c-452e-a4a2-7e3945470e81" d="M102.2,66.3c7.7-19,4.4-41.6,4.4-41.6a29.9,29.9,0,0,0-.7-17.4c0,5.7-5,12.7-5,12.7,4.3-6.7.7-20,.7-20C98.9,5,87.2,13.7,87.2,13.7l5.7-8.4c-13.3-.6-21.7,6-21.7,6l6.4-7c-18,1.7-25.4,14-25.4,14C33.9,26,47.9,67.7,47.9,67.7h2V52.3S56.6,49,56.2,32a71.9,71.9,0,0,0,36.7,0s-2.3,17.3,7.3,19l-.3,15.7Z"/><path class="af7ae67e-3a26-4227-9c2a-d207f478aee1" d="M72.3,34.3a55.9,55.9,0,0,1-10.5-5.7,22.8,22.8,0,0,1-8.7-11.5l-.9,1.2C33.9,26,47.9,67.7,47.9,67.7h2V52.3S56.6,49,56.2,32A66.1,66.1,0,0,0,72.3,34.3Z"/></g></g></svg>