<svg xmlns="http://www.w3.org/2000/svg" viewBox="0 0 459.5 196.7"><defs><style>.a63caf62-45c8-42d1-8933-d2da32122a20,.b167d4e2-2c07-442d-ba88-a7faed70373f,.fc99e6e2-be3d-4f16-91c7-58c800bd5086{fill:none;}.a63caf62-45c8-42d1-8933-d2da32122a20,.b5bef8b1-d861-4f51-b30e-d1fb22ad9e8a,.fc99e6e2-be3d-4f16-91c7-58c800bd5086{stroke:#f0e9cc;}.a63caf62-45c8-42d1-8933-d2da32122a20,.b167d4e2-2c07-442d-ba88-a7faed70373f,.b5bef8b1-d861-4f51-b30e-d1fb22ad9e8a,.fc99e6e2-be3d-4f16-91c7-58c800bd5086{stroke-miterlimit:10;}.fc99e6e2-be3d-4f16-91c7-58c800bd5086{stroke-width:1.85px;}.b5bef8b1-d861-4f51-b30e-d1fb22ad9e8a{fill:#014590;stroke-width:2.97px;}.b167d4e2-2c07-442d-ba88-a7faed70373f{stroke:#ff5517;stroke-linecap:round;stroke-width:3.06px;}.a63caf62-45c8-42d1-8933-d2da32122a20{stroke-width:1.48px;}.bcbd1e0b-0868-488e-bf06-f2fecd830790{fill:#ff8975;}.b787fb9d-a578-4399-bc2c-e0eb0eb247d3{fill:#f0e9cc;}.f68ecea9-3160-44fb-ae3b-cc29b767088c{fill:#ff5517;}</style></defs><title>Fichier 11LezzGo_full_logo_dropShadow</title><g id="f89d9c70-c25a-43de-b607-e0e14e911c48" data-name="Calque 2"><g id="a52436ff-c131-4460-91f1-66c40b102cb0" data-name="Calque 1"><line class="fc99e6e2-be3d-4f16-91c7-58c800bd5086" x1="405.1" y1="74.9" x2="405.1" y2="27.5"/><line class="fc99e6e2-be3d-4f16-91c7-58c800bd5086" x1="405.1" y1="194.9" x2="405.1" y2="144.7"/><path class="b5bef8b1-d861-4f51-b30e-d1fb22ad9e8a" d="M452.5,26.2H357a5.5,5.5,0,0,0-5.5,5.5V189.6a5.6,5.6,0,0,0,5.5,5.6h95.5a5.5,5.5,0,0,0,5.5-5.6V31.7A5.5,5.5,0,0,0,452.5,26.2Zm-6.7,19.3a5.9,5.9,0,0,1,0-11.7,5.9,5.9,0,1,1,0,11.7Z"/><path class="b167d4e2-2c07-442d-ba88-a7faed70373f" d="M454,20.3V10.4c0-2.9.1-9.1-4.3-8.9s-3.9,5.8-3.9,8.5V36.1"/><line class="a63caf62-45c8-42d1-8933-d2da32122a20" x1="405.1" y1="26.2" x2="405.1" y2="60.9"/><line class="a63caf62-45c8-42d1-8933-d2da32122a20" x1="405.1" y1="150.5" x2="405.1" y2="194.9"/><path class="bcbd1e0b-0868-488e-bf06-f2fecd830790" d="M402,64.6l-1.7,18.9L364.8,117c-.9,3.9,0,10.8,0,10.8l33.2-18c.8-.5,2.6,0,2.6,0l1.3,30.7L389.4,152l-1.1,6.2,16.8-5.4,16.8,5.4-1.1-6.2-12.6-11.3,1.3-30.9a4.7,4.7,0,0,1,2.7,0l33.2,18s.9-6.5,0-10.8L409.9,83.5l-1.5-18.8a17.7,17.7,0,0,0-3.3-6.9A15.3,15.3,0,0,0,402,64.6Z"/><path class="b787fb9d-a578-4399-bc2c-e0eb0eb247d3" d="M401.6,63.4l-1.1,18.2-36,35.6a38.2,38.2,0,0,0,0,7.4l33.8-17.8a3.1,3.1,0,0,1,2.2,0l1.2,29.6L390.1,148l-1,5.2,16-5.2,15.9,5.2-.9-5.2-11.6-11.6,1.2-29.6a3.1,3.1,0,0,1,2.2,0l33.7,17.8a30.6,30.6,0,0,0,0-7.4L409.7,81.6l-1.1-18.2a22.3,22.3,0,0,0-3.5-8.6A22.3,22.3,0,0,0,401.6,63.4Z"/><path class="b167d4e2-2c07-442d-ba88-a7faed70373f" d="M445.8,36.1V26.2"/><path class="b787fb9d-a578-4399-bc2c-e0eb0eb247d3" d="M459.4,30.5c.3,2-3.9-3-6-3s-4.3-.2-4.6-1.1.8-1.5,2.9-1.7A7,7,0,0,1,459.4,30.5Z"/><path class="f68ecea9-3160-44fb-ae3b-cc29b767088c" d="M2.1,101.4v-71H19.7V89.9H59.1v11.5Z"/><path class="f68ecea9-3160-44fb-ae3b-cc29b767088c" d="M121.9,79.1h-41c1.2,7.5,5.5,12.1,13.4,12.1,5.2-.3,9.5-1.8,10.7-7.9l17,2.2c-2.8,10.9-13.8,17.1-27.8,17.1-20.9,0-30.6-11.9-30.6-28.1s9.7-28.4,30.6-28.4c16.5,0,27.7,8.4,27.7,24.8ZM81.5,67.8H105c-.4-7.1-4.5-10.3-10.7-10.3S83,61.5,81.5,67.8Z"/><path class="f68ecea9-3160-44fb-ae3b-cc29b767088c" d="M128.9,46.9h52V56l-30,34.3h30v11.1h-52V92.5l30.6-34.4H128.9Z"/><path class="f68ecea9-3160-44fb-ae3b-cc29b767088c" d="M185.6,46.9h52V56l-30,34.3h30v11.1h-52V92.5l30.6-34.4H185.6Z"/><path class="f68ecea9-3160-44fb-ae3b-cc29b767088c" d="M199.6,156.9v37.8H182v-6.4h-1.3c-3.5,5.8-10.4,7.7-17,7.7-25.4,0-38.9-15.8-38.9-36.8s13.5-36.8,38.9-36.8h.7c20,0,32.5,9.4,35.5,24.1l-17.1,3.1c-2-9.3-8.1-15-19-15-14.1,0-21.2,9.9-21.2,24.7s7.1,24.5,21.7,24.5c10.7,0,17.7-7.3,17.7-14.6v-.6H164.7V156.9Z"/><path class="f68ecea9-3160-44fb-ae3b-cc29b767088c" d="M241.3,139.4c21,0,29.3,12.4,29.3,28.5s-8.3,28-29.3,28-29.8-11.9-29.8-28.1S220.1,139.4,241.3,139.4Zm.1,45c8.5-.1,12-6.7,12-17s-3.5-16.5-12-16.6-12.8,6.9-12.8,17.1S232.5,184.4,241.4,184.4Z"/><path class="f68ecea9-3160-44fb-ae3b-cc29b767088c" d="M312.9,180.1c5.3,0,10,3.3,10,7.7s-4.7,7.5-10,7.5-10-3.2-10-7.5S307,180.1,312.9,180.1Zm-7.7-4.7L304,121h17.4l-1.1,54.4Z"/><path class="b787fb9d-a578-4399-bc2c-e0eb0eb247d3" d="M0,96.1V25H17.6V84.6H56.9V96.1Z"/><path class="b787fb9d-a578-4399-bc2c-e0eb0eb247d3" d="M119.8,73.7H78.7c1.3,7.6,5.6,12.1,13.5,12.1,5.1-.2,9.5-1.8,10.7-7.8l17,2.1c-2.8,11-13.8,17.1-27.8,17.1-20.9,0-30.6-11.8-30.6-28s9.7-28.4,30.6-28.4c16.5,0,27.7,8.4,27.7,24.7ZM79.4,62.4h23.5c-.4-7-4.5-10.2-10.7-10.2S80.9,56.2,79.4,62.4Z"/><path class="b787fb9d-a578-4399-bc2c-e0eb0eb247d3" d="M126.8,41.6h52v9.1l-30,34.2h30V96.1h-52V87.2l30.6-34.5H126.8Z"/><path class="b787fb9d-a578-4399-bc2c-e0eb0eb247d3" d="M183.5,41.6h52v9.1l-30,34.2h30V96.1h-52V87.2l30.6-34.5H183.5Z"/><path class="b787fb9d-a578-4399-bc2c-e0eb0eb247d3" d="M197.5,151.6v37.8H179.8V183h-1.2c-3.5,5.8-10.4,7.6-17,7.6-25.5,0-38.9-15.7-38.9-36.7S136.1,117,161.6,117h.7c19.9,0,32.5,9.5,35.5,24.1l-17.2,3.2c-1.9-9.4-8.1-15.1-18.9-15.1-14.1,0-21.2,10-21.2,24.8s7.1,24.4,21.7,24.4c10.7,0,17.6-7.3,17.6-14.6v-.6H162.6V151.6Z"/><path class="b787fb9d-a578-4399-bc2c-e0eb0eb247d3" d="M239.2,134c21,0,29.3,12.5,29.3,28.6s-8.3,27.9-29.3,27.9-29.8-11.9-29.8-28.1S218,134,239.2,134Zm.1,45.1c8.5-.1,12-6.7,12-17s-3.5-16.5-12-16.7-12.8,7-12.8,17.2S230.4,179.1,239.3,179.1Z"/><path class="b787fb9d-a578-4399-bc2c-e0eb0eb247d3" d="M310.7,174.8c5.4,0,10.1,3.3,10.1,7.6s-4.7,7.5-10.1,7.5-9.9-3.2-9.9-7.5S304.9,174.8,310.7,174.8Zm-7.6-4.7-1.3-54.4h17.5l-1.1,54.4Z"/></g></g></svg>