<svg xmlns="http://www.w3.org/2000/svg" viewBox="0 0 123.8 123.8"><defs><style>.b48ed395-e9cf-40f2-b0da-d7504d5ccfec{fill:#4bc0a6;}.eb7861b9-8ba7-4881-97b5-98b0572b3f2e{fill:#073a42;stroke:#073a42;stroke-miterlimit:10;}</style></defs><title>Fichier 16LezzGo_budget_icon</title><g id="ac29637b-34b7-4243-a526-c7a7707d499b" data-name="Calque 2"><g id="fbdc38e8-e7c9-4b83-a57c-5299a0f2069f" data-name="Calque 1"><rect class="b48ed395-e9cf-40f2-b0da-d7504d5ccfec" width="123.8" height="123.78" rx="9.7" transform="translate(0 123.8) rotate(-90)"/><path class="eb7861b9-8ba7-4881-97b5-98b0572b3f2e" d="M36.7,70.1H30.2V64.6h5.6a24.5,24.5,0,0,1-.2-2.7,24.5,24.5,0,0,1,.2-2.7H30.2V53.7h6.5A32.8,32.8,0,0,1,76.6,30.2a32,32,0,0,1,17,10.9l-4.2,3.4A27.3,27.3,0,0,0,51,40.8a27.8,27.8,0,0,0-8.7,12.9H73.8v5.5H41.2a24.4,24.4,0,0,0,0,5.4H73.8v5.5H42.3a27.3,27.3,0,0,0,47.1,9.2l4.2,3.4A32.7,32.7,0,0,1,36.7,70.1Z"/></g></g></svg>