<svg xmlns="http://www.w3.org/2000/svg" xmlns:xlink="http://www.w3.org/1999/xlink" viewBox="0 0 159 192.7"><defs><style>.a0a63bfd-c8aa-47df-9835-e387dec25e69,.b1c7d981-70c5-4034-b1e2-1c7777dbb01a,.f619b2c3-89cd-4f9c-a0a2-f2c4a0d7385b{fill:none;}.ea1a19f4-7cb2-421a-ae3d-800ccd6a0a78{fill:#965450;}.b73e8e39-5d46-436c-8ea7-8138a07c656a{fill:#76413b;}.a4a0835e-96c9-4227-afea-a8bf92caeb7c{fill:#ffa65b;}.ec9d08cc-73ae-4521-afff-e75c32a5aef8{clip-path:url(#aa44b66d-6cd7-465c-874f-0dcbc1cdd28e);}.a0a63bfd-c8aa-47df-9835-e387dec25e69,.b1c7d981-70c5-4034-b1e2-1c7777dbb01a{stroke:#765e69;stroke-miterlimit:10;}.a0a63bfd-c8aa-47df-9835-e387dec25e69{stroke-width:1.41px;}.a619d89e-a184-4d78-afed-f6106b4db607{fill:#352c38;}.e101710f-6174-4818-b057-b35aac2ce250{fill:#fff;}</style><clipPath id="aa44b66d-6cd7-465c-874f-0dcbc1cdd28e" transform="translate(5)"><path class="f619b2c3-89cd-4f9c-a0a2-f2c4a0d7385b" d="M144.5,146.9c-5.8-15.5-40.2-23.2-48.3-27.9a44.8,44.8,0,0,1-22.5,5.8,44.9,44.9,0,0,1-20-4.5c-11.3,4.8-40.2,12.5-45.5,26.6A172.7,172.7,0,0,0,0,177.3H152.7A172.7,172.7,0,0,0,144.5,146.9Z"/></clipPath></defs><title>Fichier 2avatar2</title><g id="ee604892-2ba0-40d9-89cc-3cda1d035363" data-name="Calque 2"><g id="fe6cf01e-4871-4419-bc93-5f56deb04c83" data-name="OBJECTS"><path class="ea1a19f4-7cb2-421a-ae3d-800ccd6a0a78" d="M143.4,147.2c-5.9-16-42.3-23.7-48.6-28.3-8.2-5.9-5.6-25.6-5.6-25.6l-13.4.3-13.4-.3S65,113,56.9,118.9c-6.4,4.6-42.8,12.3-48.7,28.3A168.6,168.6,0,0,0,0,177.3H151.6A168.6,168.6,0,0,0,143.4,147.2Z" transform="translate(5)"/><path class="b73e8e39-5d46-436c-8ea7-8138a07c656a" d="M60,115.2c6.2-.6,12.5-1.9,18-4.9a64.6,64.6,0,0,0,10.8-7.8,55.7,55.7,0,0,1,.4-9.2l-13.4.3-13.4-.3S64.3,107.3,60,115.2Z" transform="translate(5)"/><path class="a4a0835e-96c9-4227-afea-a8bf92caeb7c" d="M144.5,146.9c-5.8-15.5-40.2-23.2-48.3-27.9a44.8,44.8,0,0,1-22.5,5.8,44.9,44.9,0,0,1-20-4.5c-11.3,4.8-40.2,12.5-45.5,26.6A172.7,172.7,0,0,0,0,177.3H152.7A172.7,172.7,0,0,0,144.5,146.9Z" transform="translate(5)"/><g class="ec9d08cc-73ae-4521-afff-e75c32a5aef8"><line class="a0a63bfd-c8aa-47df-9835-e387dec25e69" x1="135.1" y1="120.2" x2="135.1" y2="192.7"/><line class="a0a63bfd-c8aa-47df-9835-e387dec25e69" x1="125.7" y1="120.2" x2="125.7" y2="192.7"/><line class="a0a63bfd-c8aa-47df-9835-e387dec25e69" x1="116.3" y1="120.2" x2="116.3" y2="192.7"/><line class="a0a63bfd-c8aa-47df-9835-e387dec25e69" x1="106.9" y1="120.2" x2="106.9" y2="192.7"/><line class="a0a63bfd-c8aa-47df-9835-e387dec25e69" x1="97.5" y1="120.2" x2="97.5" y2="192.7"/><line class="a0a63bfd-c8aa-47df-9835-e387dec25e69" x1="88.1" y1="120.2" x2="88.1" y2="192.7"/><line class="a0a63bfd-c8aa-47df-9835-e387dec25e69" x1="78.8" y1="120.2" x2="78.8" y2="192.7"/><line class="a0a63bfd-c8aa-47df-9835-e387dec25e69" x1="69.4" y1="120.2" x2="69.4" y2="192.7"/><line class="a0a63bfd-c8aa-47df-9835-e387dec25e69" x1="60" y1="120.2" x2="60" y2="192.7"/><line class="a0a63bfd-c8aa-47df-9835-e387dec25e69" x1="50.6" y1="120.2" x2="50.6" y2="192.7"/><line class="a0a63bfd-c8aa-47df-9835-e387dec25e69" x1="41.2" y1="120.2" x2="41.2" y2="192.7"/><line class="a0a63bfd-c8aa-47df-9835-e387dec25e69" x1="31.8" y1="120.2" x2="31.8" y2="192.7"/><line class="a0a63bfd-c8aa-47df-9835-e387dec25e69" x1="22.4" y1="120.2" x2="22.4" y2="192.7"/><line class="a0a63bfd-c8aa-47df-9835-e387dec25e69" x1="13" y1="120.2" x2="13" y2="192.7"/><line class="a0a63bfd-c8aa-47df-9835-e387dec25e69" x1="144.5" y1="120.2" x2="144.5" y2="192.7"/><line class="b1c7d981-70c5-4034-b1e2-1c7777dbb01a" y1="141.6" x2="159" y2="141.6"/><line class="b1c7d981-70c5-4034-b1e2-1c7777dbb01a" y1="151" x2="159" y2="151"/><line class="b1c7d981-70c5-4034-b1e2-1c7777dbb01a" y1="160.4" x2="159" y2="160.4"/><line class="b1c7d981-70c5-4034-b1e2-1c7777dbb01a" y1="169.7" x2="159" y2="169.7"/><line class="b1c7d981-70c5-4034-b1e2-1c7777dbb01a" y1="132.2" x2="159" y2="132.2"/></g><path class="b73e8e39-5d46-436c-8ea7-8138a07c656a" d="M53.3,62.6c-2.1-6.7-7.2-5.2-7.7-5s-5.8.8-4.9,7.8,5,10.8,8.8,9.7S55.5,69.3,53.3,62.6Z" transform="translate(5)"/><path class="b73e8e39-5d46-436c-8ea7-8138a07c656a" d="M97.6,62.6c2.2-6.7,7.3-5.2,7.8-5s5.8.8,4.8,7.8-5,10.8-8.8,9.7S95.4,69.3,97.6,62.6Z" transform="translate(5)"/><path class="ea1a19f4-7cb2-421a-ae3d-800ccd6a0a78" d="M102.1,52C99.4,22.6,77,24.3,74.9,24.5S50.5,22.6,47.8,52s10.5,48.9,27.1,47.8C91.6,100.9,104.8,81.6,102.1,52Z" transform="translate(5)"/><path class="b73e8e39-5d46-436c-8ea7-8138a07c656a" d="M76.4,76.9l.3-.6.3-.5.8-.9a3,3,0,0,1,.8-.8l.9-.7v.4c-.3-2-.5-3.9-.7-5.9l-.6-5.8c.4,1.9.8,3.8,1.1,5.7s.7,3.9,1,5.8v.2l-.2.2-.8.9-.8.8-1,.7-.5.2Z" transform="translate(5)"/><path class="a619d89e-a184-4d78-afed-f6106b4db607" d="M61,62.5c0,2.2.9,4,1.9,4s1.8-1.8,1.8-4-.8-4-1.8-4S61,60.3,61,62.5Z" transform="translate(5)"/><path class="a619d89e-a184-4d78-afed-f6106b4db607" d="M86.3,62.5c0,2.2.8,4,1.8,4s1.8-1.8,1.8-4-.8-4-1.8-4S86.3,60.3,86.3,62.5Z" transform="translate(5)"/><path class="a619d89e-a184-4d78-afed-f6106b4db607" d="M56.5,55.9a9.9,9.9,0,0,1,1.3-2l.9-.9,1.1-.8,1.4-.6a7.6,7.6,0,0,1,1.6-.3h.8l.8.2a4.2,4.2,0,0,1,1.5.4l1.2.7c.4.2.6.6.9.8l.6.8.4.7.3.6-.6-.3-.6-.4-.9-.4-.9-.4a4.5,4.5,0,0,0-1.1-.3l-1.1-.2H62.9l-1.1.2-1.2.3-1,.5-1,.4-.8.5-.7.3Z" transform="translate(5)"/><path class="a619d89e-a184-4d78-afed-f6106b4db607" d="M81.9,55.9a6.3,6.3,0,0,1,1.3-2l.9-.9,1.1-.8,1.4-.6a7.6,7.6,0,0,1,1.6-.3H89l.8.2a3.3,3.3,0,0,1,1.4.4l1.3.7c.4.2.6.6.9.8l.6.8.4.7.3.6-.6-.3-.6-.4-.9-.4-.9-.4a4.5,4.5,0,0,0-1.1-.3l-1.1-.2H88.3l-1.1.2-1.2.3-1,.5-1,.4-.8.5-.7.3Z" transform="translate(5)"/><path class="e101710f-6174-4818-b057-b35aac2ce250" d="M63.8,81.2l24.7-.3S77.8,90.9,63.8,81.2Z" transform="translate(5)"/><path class="a619d89e-a184-4d78-afed-f6106b4db607" d="M46.3,35.2s-1.5,36.7,2.7,54c3.2,13,12.5,16.5,12.5,16.5s22,8.5,34.3-5.3c3.5-3.9,9-24.7,6.5-62l-9-3.7s1.5,18.2,6,20.5c0,0-1.4,32.6-7,36.5s3.2-15-6-14.8-9.5.5-9.5.5-16.5-2.7-16.3,3.8,2,10.7-.2,10.7-10.5-5.2-9-39.5c0,0,4.7-1.7,4.7-13.7C56,22.9,46.3,35.2,46.3,35.2Z" transform="translate(5)"/><path class="a619d89e-a184-4d78-afed-f6106b4db607" d="M55,33.2s7.2,9.7,15.8,9.7c4.7,0,0-8.2,0-8.2s6.7,10.5,13.7,10.2,1-10.2,1-10.2,5.3,10.7,11.8,10.2,1-11,1-11,3,11.3,9.2,9.8S106,32.4,106,32.4s5.3,5,7.5,4.8,2.3-7-5.5-10.3c0,0,7.8-.2,8-4s-4.7-5.7-16.2-4.5c0,0,9.5-4,7.5-7.5s-10.5,1.5-10.5,1.5,8.5-4.7,3.5-8.5S74.8.9,61.8,16.4c0,0,27-14.2,23.7-16.2S50.9,6,46,19.7c-6,16.7-1.5,26.2.4,37.6Z" transform="translate(5)"/></g></g></svg>