<svg xmlns="http://www.w3.org/2000/svg" viewBox="0 0 152.7 165.8"><defs><style>.f3204310-fa85-4ab9-a0e5-aa2403725555{fill:#965450;}.b11d5b98-37b0-40a1-9af4-d5758ce3567c{fill:#824846;}.e08acabb-a07b-4786-b2ea-cb2e88a18cec{fill:#fddec0;}.ac0199fc-c12e-46ed-a9f2-c0a3a9df8e78{fill:#e2c6af;}.b850b380-0b70-46ee-8d36-a46d2e93a558{fill:#6f96bd;}.e4ed6721-6532-4457-9b31-5bddc6b03f3f{fill:#fff;}.ec445df6-3ce5-43ed-acab-4ae338c1e1ac{fill:#352c38;}</style></defs><title>Fichier 7avatar7</title><g id="fc570b7c-ae51-4ce1-8105-6ca544e47cd8" data-name="Calque 2"><g id="ffdf7352-483f-4ad3-9631-9a06a7b8d3f2" data-name="OBJECTS"><path class="f3204310-fa85-4ab9-a0e5-aa2403725555" d="M71.6,10.1s12.9-5.7,23-.4,16.7,26.8,26,35.2,16.6,18.5,11.2,28-10.8,8.8-5.3,22.2-17.4,16.6-12.7,26.5c0,0-11.8-21.9-8.3-41.1S99.2,15.9,83.7,17.4l-14-.8Z"/><path class="f3204310-fa85-4ab9-a0e5-aa2403725555" d="M75.9,4.8s6.4-10.1,19.9-1c6.6,4.4,9.5,15.2,21.7,21.3s15.8,12.8,10.2,22.5c-3.5,6,7.2,4.8,1.9,19.8C125.5,79,89.9,15.5,89.9,15.5L75.1,13.6Z"/><path class="b11d5b98-37b0-40a1-9af4-d5758ce3567c" d="M117.3,49.3s10.5,8.4,7.2,18.5-12.7,13.7-6.1,27.7-6.1,17.6-6.1,17.6-30.8-2.2-27-34.7S105,44.9,105,44.9Z"/><path class="b11d5b98-37b0-40a1-9af4-d5758ce3567c" d="M117.3,49.3s10.5,8.4,7.2,18.5-12.7,13.7-6.1,27.7-6.1,17.6-6.1,17.6-30.8-2.2-27-34.7S105,44.9,105,44.9Z"/><path class="b11d5b98-37b0-40a1-9af4-d5758ce3567c" d="M38.9,25.2S27.2,36.5,28,47.5s-2.7,19.2-8.4,24.2-5.4,15.4.1,21.5a20.6,20.6,0,0,1,.4-15.1s-5,28.5,23.8,31.9c0,0-1-.4-4.1-8.7,0,0,1.6,7.9,19.2,9.2S85.5,88,77.1,62.6,52.3,30.2,52.3,30.2Z"/><path class="e08acabb-a07b-4786-b2ea-cb2e88a18cec" d="M143.4,135.7c-5.9-15.9-42.3-23.6-48.6-28.2-8.2-6-5.6-25.6-5.6-25.6l-13.4.3-13.4-.3s2.6,19.6-5.5,25.6c-6.4,4.6-42.8,12.3-48.7,28.2A171,171,0,0,0,0,165.8H151.6A171,171,0,0,0,143.4,135.7Z"/><path class="ac0199fc-c12e-46ed-a9f2-c0a3a9df8e78" d="M60,103.8c6.2-.6,12.5-1.9,18-4.9a70.8,70.8,0,0,0,10.8-7.8,55.7,55.7,0,0,1,.4-9.2l-13.4.3-13.4-.3S64.3,95.9,60,103.8Z"/><path class="b850b380-0b70-46ee-8d36-a46d2e93a558" d="M144.5,135.5c-5.8-15.6-40.2-23.3-48.3-28a46.2,46.2,0,0,1-42.5,1.4c-11.3,4.8-40.2,12.5-45.5,26.6A172.9,172.9,0,0,0,0,165.8H152.7A172.9,172.9,0,0,0,144.5,135.5Z"/><path class="ac0199fc-c12e-46ed-a9f2-c0a3a9df8e78" d="M53.3,51.1c-2.1-6.7-7.2-5.1-7.7-4.9s-5.8.8-4.9,7.8,5,10.8,8.8,9.7S55.5,57.9,53.3,51.1Z"/><path class="ac0199fc-c12e-46ed-a9f2-c0a3a9df8e78" d="M97.6,51.1c2.2-6.7,7.3-5.1,7.8-4.9s5.8.8,4.8,7.8-5,10.8-8.8,9.7S95.4,57.9,97.6,51.1Z"/><path class="e08acabb-a07b-4786-b2ea-cb2e88a18cec" d="M102.1,40.6C99.4,11.2,77,12.9,74.9,13.1S50.5,11.2,47.8,40.6,58.3,89.5,74.9,88.4C91.6,89.5,104.8,70.2,102.1,40.6Z"/><path class="ac0199fc-c12e-46ed-a9f2-c0a3a9df8e78" d="M78.1,50.6a17.2,17.2,0,0,1,1.1,2.9,10.3,10.3,0,0,0,.4,1.4l.3,1.4c.2,1,.3,2,.5,2.9s.2,2,.2,3v.5l-.3.2a27.5,27.5,0,0,1-4,2.6,22,22,0,0,1,2.8-3.8l-.2.7c-.2-1-.5-1.9-.6-2.9a28.9,28.9,0,0,1-.4-2.9V55.1a7.6,7.6,0,0,1-.1-1.5C77.9,52.6,78,51.6,78.1,50.6Z"/><path class="e4ed6721-6532-4457-9b31-5bddc6b03f3f" d="M62,69.8l26.5-.3S77.9,80,62,69.8Z"/><path class="ac0199fc-c12e-46ed-a9f2-c0a3a9df8e78" d="M68.8,75.1l.8.2,2,.6,1.3.2,1.5.2h3.2l1.7-.3a4.2,4.2,0,0,0,1.5-.4,3.4,3.4,0,0,0,1.4-.5l1.3-.5,1-.6.8-.4.6-.4-.5.5-.7.6a3.4,3.4,0,0,1-.9.8l-1.2.7-1.5.7-.8.3h-.8l-1.8.3H76a9.1,9.1,0,0,1-1.7-.1l-1.6-.4-1.3-.4-1.1-.5-.8-.4Z"/><path class="ec445df6-3ce5-43ed-acab-4ae338c1e1ac" d="M61,51.1c0,2.2.9,4,1.9,4s1.8-1.8,1.8-4-.8-4-1.8-4S61,48.9,61,51.1Z"/><path class="ec445df6-3ce5-43ed-acab-4ae338c1e1ac" d="M86.3,51.1c0,2.2.8,4,1.8,4s1.8-1.8,1.8-4-.8-4-1.8-4S86.3,48.9,86.3,51.1Z"/><path class="ec445df6-3ce5-43ed-acab-4ae338c1e1ac" d="M56.5,44.5a12.1,12.1,0,0,1,1.3-2.1l.9-.8,1.1-.8a5.9,5.9,0,0,1,1.4-.6,7.6,7.6,0,0,1,1.6-.3h1.6l1.5.5a7.5,7.5,0,0,1,1.2.7c.4.2.6.6.9.8s.5.5.6.8l.4.7.3.6-.6-.3-.6-.4-.9-.4-.9-.4a4.5,4.5,0,0,0-1.1-.3L64.1,42H62.9l-1.1.2-1.2.3-1,.5-1,.4-.8.4-.7.4Z"/><path class="ec445df6-3ce5-43ed-acab-4ae338c1e1ac" d="M81.9,44.5a7.3,7.3,0,0,1,1.3-2.1l.9-.8,1.1-.8a5.9,5.9,0,0,1,1.4-.6,7.6,7.6,0,0,1,1.6-.3h1.6l1.4.5a5.4,5.4,0,0,1,1.3.7c.4.2.6.6.9.8s.5.5.6.8l.4.7.3.6-.6-.3-.6-.4-.9-.4-.9-.4a4.5,4.5,0,0,0-1.1-.3L89.5,42H88.3l-1.1.2-1.2.3L85,43l-1,.4-.8.4-.7.4Z"/><path class="f3204310-fa85-4ab9-a0e5-aa2403725555" d="M76,21.4s-10.7-5.1-15.8,7.1S56.2,58,42.5,64.1c-15.6,7-9.8,23.4-9.8,23.4s-10.2-8.2-7.1-16.1S43.7,52.9,46.8,38,66.1,8.8,76,21.4Z"/><path class="f3204310-fa85-4ab9-a0e5-aa2403725555" d="M75.9,21.6l-.8-.2-2.5-.2a11.1,11.1,0,0,0-3.8.6,10.1,10.1,0,0,0-4.2,2.6,16.9,16.9,0,0,0-3.2,5.2,64.3,64.3,0,0,0-2,7c-1.1,4.9-1.9,10.3-3.8,15.4a24.2,24.2,0,0,1-4,7.2,19.5,19.5,0,0,1-6.2,4.9,19.4,19.4,0,0,0-5.9,4.1,17.1,17.1,0,0,0-2.1,2.6A18.3,18.3,0,0,0,36,73.6a18.5,18.5,0,0,0-.9,5.4,23.9,23.9,0,0,0,.4,4.2,13.9,13.9,0,0,0,1,3.6,16.3,16.3,0,0,1-1.1-3.5A25.2,25.2,0,0,1,35,79a19.2,19.2,0,0,1,.8-5.5,23.8,23.8,0,0,1,1.3-2.9,24.7,24.7,0,0,1,2.1-2.7,23.9,23.9,0,0,1,5.9-4.4A18.1,18.1,0,0,0,51,58.7a26.1,26.1,0,0,0,3.7-7c1.7-5.1,2.3-10.4,3.2-15.4a50.5,50.5,0,0,1,1.9-7.2A18,18,0,0,1,63.1,23a12.8,12.8,0,0,1,5-3.3,13.8,13.8,0,0,1,4.5-.9l3,.2,1.1.2Z"/><path class="f3204310-fa85-4ab9-a0e5-aa2403725555" d="M76.7,4.7,76,21.4S55.5,11.6,48,51.3c0,0-31.5,31.5-24,16s-8.2-22.7,4.8-33.7,14.1-11,21.6-20.4S66.9-4.4,76.7,4.7Z"/><path class="f3204310-fa85-4ab9-a0e5-aa2403725555" d="M76,21.4s10.9-6,14.5,5.4S101.1,44.7,103,55.4c2.3,13.5-17.4,33.2-14.2,45s15.4,8.1,15.4,8.1-11.3-2.6-9.7-10.4S123.7,70.8,123,60.9s-2.3-5.3-6.2-22.6S94.1,5.8,75.6,12.1C65.1,2.7,76,21.4,76,21.4Z"/><path class="f3204310-fa85-4ab9-a0e5-aa2403725555" d="M75.5,20.6a2.5,2.5,0,0,1,.9-.3l2.4-.6a14.3,14.3,0,0,1,3.8-.3,7.7,7.7,0,0,1,4.9,1.7,4.7,4.7,0,0,1,1,1,2.5,2.5,0,0,1,.4.7l.4.6,1.2,2.8c.7,2,1.1,4.1,1.9,6.1a27.7,27.7,0,0,0,2.9,6,11.9,11.9,0,0,0,.9,1.5,7.1,7.1,0,0,0,1,1.4,31.3,31.3,0,0,1,2,3,18.3,18.3,0,0,1,2.3,6.8,26.2,26.2,0,0,1-.4,6.9,46,46,0,0,1-4.3,11.4,13.9,13.9,0,0,0-1.6,4.4,11.1,11.1,0,0,0,.1,3.7,8.3,8.3,0,0,0,.6,2.3l.3.8-.4-.8a10.7,10.7,0,0,1-.7-2.3,11,11,0,0,1-.1-3.7,11.3,11.3,0,0,1,1.5-4.6,46.7,46.7,0,0,0,3.9-11.3,21.4,21.4,0,0,0,.2-6.7,17,17,0,0,0-2.3-6.4,25.1,25.1,0,0,0-2-2.9l-1-1.4-1-1.5a39.3,39.3,0,0,1-3-6.2c-.8-2.1-1.3-4.2-1.9-6.1A20.6,20.6,0,0,0,88.2,24l-.3-.6-.4-.5a3.4,3.4,0,0,0-.8-.9,7.2,7.2,0,0,0-4.1-1.4,19.4,19.4,0,0,0-3.6.2l-2.3.6-.7.3Z"/><path class="b11d5b98-37b0-40a1-9af4-d5758ce3567c" d="M97.5,37.1s5.6,14.2,3.5,24.3c0,0,4-9.5,2.8-18.1S97.5,37.1,97.5,37.1Z"/></g></g></svg>