<svg xmlns="http://www.w3.org/2000/svg" viewBox="0 0 123.8 123.8"><defs><style>.edb2b1d8-9ea7-4a9a-be0e-3f001ddc2327{fill:#ff8975;}.b9c53717-f228-41d1-bc6e-a6376dd7a4a0{fill:#842015;stroke:#842015;stroke-miterlimit:10;}</style></defs><title>Fichier 15LezzGo_calendar_icon</title><g id="e11c98cc-1c32-4437-986d-caa8d7e66133" data-name="Calque 2"><g id="a8f103ce-0afd-4404-8436-d367b4d5ad61" data-name="Calque 1"><rect class="edb2b1d8-9ea7-4a9a-be0e-3f001ddc2327" width="123.8" height="123.78" rx="9.7" transform="translate(0 123.8) rotate(-90)"/><g id="a4531afe-d44c-4c2e-823c-5bca7badf141" data-name=" 01 align center"><path class="b9c53717-f228-41d1-bc6e-a6376dd7a4a0" d="M86.3,34.8H78.2V29.3H72.7v5.5H51V29.3H45.6v5.5H37.5a8.2,8.2,0,0,0-8.2,8.1V94.4H94.4V42.9A8.1,8.1,0,0,0,86.3,34.8ZM34.8,42.9a2.7,2.7,0,0,1,2.7-2.7H86.3A2.7,2.7,0,0,1,89,42.9V51H34.8Zm0,46.1V56.5H89V89Z"/><rect class="b9c53717-f228-41d1-bc6e-a6376dd7a4a0" x="70" y="64.6" width="5.4" height="5.43"/><rect class="b9c53717-f228-41d1-bc6e-a6376dd7a4a0" x="59.2" y="64.6" width="5.4" height="5.43"/><rect class="b9c53717-f228-41d1-bc6e-a6376dd7a4a0" x="48.3" y="64.6" width="5.4" height="5.43"/><rect class="b9c53717-f228-41d1-bc6e-a6376dd7a4a0" x="70" y="75.5" width="5.4" height="5.43"/><rect class="b9c53717-f228-41d1-bc6e-a6376dd7a4a0" x="59.2" y="75.5" width="5.4" height="5.43"/><rect class="b9c53717-f228-41d1-bc6e-a6376dd7a4a0" x="48.3" y="75.5" width="5.4" height="5.43"/></g></g></g></svg>