<svg xmlns="http://www.w3.org/2000/svg" xmlns:xlink="http://www.w3.org/1999/xlink" viewBox="0 0 169.5 168.5"><defs><style>.eb93da35-6b6e-4d66-a71b-fcae469efd96{fill:none;}.ae27aca1-78ec-40eb-9b7d-a9009a90e746{fill:#ffac9d;}.a8a9621f-9713-4fc6-b703-8d6eeeb7e7f6{fill:#cc887f;}.fa602334-9cf3-49d7-9b21-0732c83385f5{fill:#ffa65b;}.a2c1a38c-47c0-4c05-a42d-7fba86acb27d{clip-path:url(#bec1b998-d297-463c-babb-262d5a72e3fe);}.aece1f83-bf36-4b2a-b4c3-1c0b0428ce94,.f8428d1d-4bbc-4d92-9339-ff6cd6779a3f{fill:#352c38;}.e6dcb041-74f3-4255-986d-c1ca2bee3088{fill:#fff;}.acd690c1-2137-4e52-8a61-554b5c8c06dd{fill:#765e69;}.f8428d1d-4bbc-4d92-9339-ff6cd6779a3f{opacity:0.4;}</style><clipPath id="bec1b998-d297-463c-babb-262d5a72e3fe" transform="translate(2.4)"><path class="eb93da35-6b6e-4d66-a71b-fcae469efd96" d="M144.8,132.2c-2.2-5.8-8.4-10.6-15.8-14.4-13.1,8.9-31.7,14.5-52.4,14.5s-39.2-5.6-52.3-14.5c-7.4,3.8-13.6,8.6-15.8,14.4A172.7,172.7,0,0,0,.3,162.6H153A172.7,172.7,0,0,0,144.8,132.2Z"/></clipPath></defs><title>Fichier 8avatar8</title><g id="ba0cac62-b5c6-4988-9e6a-c4a31ac51ed5" data-name="Calque 2"><g id="ad39dc3c-8561-476d-bb20-a88083d105d2" data-name="OBJECTS"><path class="ae27aca1-78ec-40eb-9b7d-a9009a90e746" d="M143.4,132.5c-5.9-16-42.3-23.7-48.6-28.3-8.2-5.9-5.6-25.6-5.6-25.6l-13.4.3-13.4-.3s2.6,19.7-5.5,25.6c-6.4,4.6-42.8,12.3-48.7,28.3A168.6,168.6,0,0,0,0,162.6H151.6A168.6,168.6,0,0,0,143.4,132.5Z" transform="translate(2.4)"/><path class="a8a9621f-9713-4fc6-b703-8d6eeeb7e7f6" d="M60,100.5c6.2-.6,12.5-1.9,18-4.9a64.6,64.6,0,0,0,10.8-7.8,55.7,55.7,0,0,1,.4-9.2l-13.4.3-13.4-.3S64.3,92.6,60,100.5Z" transform="translate(2.4)"/><path class="fa602334-9cf3-49d7-9b21-0732c83385f5" d="M144.8,132.2c-2.2-5.8-8.4-10.6-15.8-14.4-13.1,8.9-31.7,14.5-52.4,14.5s-39.2-5.6-52.3-14.5c-7.4,3.8-13.6,8.6-15.8,14.4A172.7,172.7,0,0,0,.3,162.6H153A172.7,172.7,0,0,0,144.8,132.2Z" transform="translate(2.4)"/><g class="a2c1a38c-47c0-4c05-a42d-7fba86acb27d"><circle class="aece1f83-bf36-4b2a-b4c3-1c0b0428ce94" cx="110.5" cy="133" r="9.6"/><circle class="aece1f83-bf36-4b2a-b4c3-1c0b0428ce94" cx="76.9" cy="133" r="9.6"/><circle class="aece1f83-bf36-4b2a-b4c3-1c0b0428ce94" cx="43.2" cy="133" r="9.6"/><circle class="aece1f83-bf36-4b2a-b4c3-1c0b0428ce94" cx="9.6" cy="133" r="9.6"/><circle class="aece1f83-bf36-4b2a-b4c3-1c0b0428ce94" cx="144.2" cy="133" r="9.6"/><circle class="aece1f83-bf36-4b2a-b4c3-1c0b0428ce94" cx="126.3" cy="158.9" r="9.6"/><circle class="aece1f83-bf36-4b2a-b4c3-1c0b0428ce94" cx="92.6" cy="158.9" r="9.6"/><circle class="aece1f83-bf36-4b2a-b4c3-1c0b0428ce94" cx="59" cy="158.9" r="9.6"/><circle class="aece1f83-bf36-4b2a-b4c3-1c0b0428ce94" cx="25.3" cy="158.9" r="9.6"/><circle class="aece1f83-bf36-4b2a-b4c3-1c0b0428ce94" cx="159.9" cy="158.9" r="9.6"/></g><path class="a8a9621f-9713-4fc6-b703-8d6eeeb7e7f6" d="M97.6,47.9c2.2-6.7,7.3-5.2,7.8-5s5.8.8,4.8,7.8-5,10.8-8.8,9.7S95.4,54.6,97.6,47.9Z" transform="translate(2.4)"/><path class="ae27aca1-78ec-40eb-9b7d-a9009a90e746" d="M102.1,37.3C99.4,7.9,77,9.6,74.9,9.8S50.5,7.9,47.8,37.3,58.3,86.2,74.9,85.1C91.6,86.2,104.8,66.9,102.1,37.3Z" transform="translate(2.4)"/><path class="a8a9621f-9713-4fc6-b703-8d6eeeb7e7f6" d="M78.1,47.4a5.7,5.7,0,0,1,.4,1.4,7.4,7.4,0,0,1,.4,1.4l.6,2.9c.1,1,.3,1.9.4,2.9a15,15,0,0,1,.3,2.9v.3h-.2l-1.8,1.5a13.3,13.3,0,0,1-1.9,1.4l1.5-1.8,1.6-1.7v.4l-.6-2.9c-.1-1-.2-2-.4-3s-.1-1.9-.2-2.9-.1-1-.1-1.5Z" transform="translate(2.4)"/><path class="e6dcb041-74f3-4255-986d-c1ca2bee3088" d="M62,66.5l26.5-.3S77.9,76.7,62,66.5Z" transform="translate(2.4)"/><path class="a8a9621f-9713-4fc6-b703-8d6eeeb7e7f6" d="M68.8,71.8l.8.2a14.3,14.3,0,0,0,2,.5l1.3.3,1.5.2h3.2l1.7-.3a8.3,8.3,0,0,0,1.5-.4,5.8,5.8,0,0,0,1.4-.5l1.3-.5,1-.6.7-.4.7-.4-.5.5-.7.7a7.1,7.1,0,0,1-.9.7l-1.2.8a9.4,9.4,0,0,1-1.5.6l-.8.3-.4.2h-.4l-1.8.3H76l-1.7-.2a7.6,7.6,0,0,1-1.6-.3l-1.3-.5-1.1-.4-.8-.5Z" transform="translate(2.4)"/><path class="aece1f83-bf36-4b2a-b4c3-1c0b0428ce94" d="M61,47.8c0,2.2.9,4,1.9,4s1.8-1.8,1.8-4-.8-4-1.8-4S61,45.6,61,47.8Z" transform="translate(2.4)"/><path class="aece1f83-bf36-4b2a-b4c3-1c0b0428ce94" d="M86.3,47.8c0,2.2.8,4,1.8,4s1.8-1.8,1.8-4-.8-4-1.8-4S86.3,45.6,86.3,47.8Z" transform="translate(2.4)"/><path class="aece1f83-bf36-4b2a-b4c3-1c0b0428ce94" d="M56.5,41.2a9.9,9.9,0,0,1,1.3-2l.9-.9,1.1-.8,1.4-.6a7.6,7.6,0,0,1,1.6-.3h.8l.8.2a4.2,4.2,0,0,1,1.5.4l1.2.7c.4.2.6.6.9.8l.6.8.4.7.3.6-.6-.3-.6-.4-.9-.4-.9-.4a4.5,4.5,0,0,0-1.1-.3l-1.1-.2H62.9l-1.1.2-1.2.3-1,.5-1,.4-.8.5-.7.3Z" transform="translate(2.4)"/><path class="aece1f83-bf36-4b2a-b4c3-1c0b0428ce94" d="M81.9,41.2a6.3,6.3,0,0,1,1.3-2l.9-.9,1.1-.8,1.4-.6a7.6,7.6,0,0,1,1.6-.3H89l.8.2a3.3,3.3,0,0,1,1.4.4l1.3.7c.4.2.6.6.9.8l.6.8.4.7.3.6-.6-.3-.6-.4-.9-.4-.9-.4a4.5,4.5,0,0,0-1.1-.3l-1.1-.2H88.3l-1.1.2-1.2.3-1,.5-1,.4-.8.5-.7.3Z" transform="translate(2.4)"/><path class="acd690c1-2137-4e52-8a61-554b5c8c06dd" d="M56.9,14.6s.7,18.6,22.9,21.9l-7.6-8.9s10.6,9.3,22.5,7.9c0,0-1.6-5.9-7.9-11.6,0,0,23.5,10.3,8.6,54.8,0,0,17.2-21.6,12.9-47.8C103.2-.3,76.4-3.4,64.9,2.4S56.9,14.6,56.9,14.6Z" transform="translate(2.4)"/><path class="acd690c1-2137-4e52-8a61-554b5c8c06dd" d="M60.6,7.7S42.8,2.4,37,28.2C32,50.5,42,71,59.2,84.6c0,0-9.9-9.6-10.6-34.1S63.2,14,68.9,11.7,60.6,7.7,60.6,7.7Z" transform="translate(2.4)"/><path class="f8428d1d-4bbc-4d92-9339-ff6cd6779a3f" d="M108.3,30.9a43.6,43.6,0,0,0-2-8.1A53.6,53.6,0,0,1,98.7,40c2.5,8.3,2.7,20.7-3.3,38.7C95.4,78.7,112.6,57.1,108.3,30.9Z" transform="translate(2.4)"/><path class="f8428d1d-4bbc-4d92-9339-ff6cd6779a3f" d="M48.6,50.5a51.5,51.5,0,0,1,1.7-14.8l-1.7-1c-4-2.7-7.7-5.5-10.5-9.5-.1-.1-.1-.2-.2-.4L37,28.2C32,50.5,42,71,59.2,84.6,59.2,84.6,49.3,75,48.6,50.5Z" transform="translate(2.4)"/><path class="a8a9621f-9713-4fc6-b703-8d6eeeb7e7f6" d="M42.4,44.4c-1.2,1.1-2.1,3-1.7,6.3.7,5.2,3.1,8.7,5.9,9.6C44.7,54.8,43.5,49,42.4,44.4Z" transform="translate(2.4)"/></g></g></svg>