<svg xmlns="http://www.w3.org/2000/svg" viewBox="0 0 152.7 168.2"><defs><style>.ba2f6fc5-e7ac-4e6f-85c5-b80d86c1c87e{fill:#ffac9d;}.ee2883ce-e60b-4101-9379-f6a57df0c799{fill:#cc887f;}.bd663f92-b7b9-4922-a784-5660a28c1da0{fill:#6f96bd;}.a26d1bbf-712e-4032-b83f-528db67b294b{fill:#85b7e0;}.f31db418-c529-491c-b50a-a31145996873{fill:#fff;}.a9bf28d8-3ffb-4a57-afbd-66738bb2f81c{fill:#352c38;}.e4816520-269d-4686-9bca-06b89a80c06e{fill:#965450;}.a23ac75f-2b63-4d87-bb72-98eefd33c43a{fill:#76413b;}</style></defs><title>Fichier 4avatar4</title><g id="aadddf19-d6e9-4c67-8d42-011f0a497e56" data-name="Calque 2"><g id="ac7658d5-0893-4a11-a505-9572a6bba814" data-name="OBJECTS"><path class="ba2f6fc5-e7ac-4e6f-85c5-b80d86c1c87e" d="M143.4,138.1c-5.9-16-42.3-23.6-48.6-28.3-8.2-5.9-5.6-25.6-5.6-25.6l-13.4.3-13.4-.3s2.6,19.7-5.5,25.6c-6.4,4.7-42.8,12.3-48.7,28.3A171,171,0,0,0,0,168.2H151.6A171,171,0,0,0,143.4,138.1Z"/><path class="ee2883ce-e60b-4101-9379-f6a57df0c799" d="M60,106.2c6.2-.7,12.5-1.9,18-5a59.4,59.4,0,0,0,10.8-7.8,55.7,55.7,0,0,1,.4-9.2l-13.4.3-13.4-.3S64.3,98.2,60,106.2Z"/><path class="bd663f92-b7b9-4922-a784-5660a28c1da0" d="M144.5,137.9c-4.6-12.5-27.6-19.9-40.7-24.8-5.7,6.6-15.9,11-27.4,11s-21.7-4.4-27.5-11c-13.1,4.9-36,12.3-40.7,24.8A170.5,170.5,0,0,0,0,168.2H152.7A170.5,170.5,0,0,0,144.5,137.9Z"/><path class="a26d1bbf-712e-4032-b83f-528db67b294b" d="M76.3,129.2c14.7,0,27.3-5.9,32.7-14.2l-5.2-1.9c-5.7,6.6-15.9,11-27.4,11s-21.7-4.4-27.5-11L43.7,115C49.1,123.4,61.7,129.2,76.3,129.2Z"/><path class="ee2883ce-e60b-4101-9379-f6a57df0c799" d="M53.3,53.5c-2.1-6.7-7.2-5.2-7.7-5s-5.8.8-4.9,7.8,5,10.9,8.8,9.7S55.5,60.2,53.3,53.5Z"/><path class="ee2883ce-e60b-4101-9379-f6a57df0c799" d="M96.6,53.5c2.2-6.7,7.3-5.2,7.8-5s5.8.8,4.8,7.8-5,10.9-8.8,9.7S94.4,60.2,96.6,53.5Z"/><path class="ba2f6fc5-e7ac-4e6f-85c5-b80d86c1c87e" d="M102.1,42.9C99.4,13.5,77,15.2,74.9,15.4S50.5,13.5,47.8,42.9,58.3,91.8,74.9,90.7C91.6,91.8,104.8,72.5,102.1,42.9Z"/><path class="ee2883ce-e60b-4101-9379-f6a57df0c799" d="M78.1,53a5.7,5.7,0,0,1,.4,1.4,10.3,10.3,0,0,1,.4,1.4l.6,2.9c.1,1,.3,2,.4,2.9a15,15,0,0,1,.3,2.9v.3h-.2l-1.8,1.5a13.3,13.3,0,0,1-1.9,1.4L77.9,66l1.6-1.7v.4l-.6-2.9a25.4,25.4,0,0,0-.4-2.9c-.1-1-.1-2-.2-3s-.1-.9-.1-1.4Z"/><path class="f31db418-c529-491c-b50a-a31145996873" d="M62,72.1l26.5-.2S77.9,82.3,62,72.1Z"/><path class="ee2883ce-e60b-4101-9379-f6a57df0c799" d="M68.8,77.5l.8.2,2,.5,1.3.2,1.5.2a8.6,8.6,0,0,0,1.6,0h1.6l1.7-.3a8.3,8.3,0,0,0,1.5-.4,3.4,3.4,0,0,0,1.4-.5l1.3-.5,1-.5.7-.5.7-.4-.5.6-.7.6a7.1,7.1,0,0,1-.9.7l-1.2.8-1.5.7-.8.2-.4.2h-.4l-1.8.3H76a4.7,4.7,0,0,1-1.7-.2,7.6,7.6,0,0,1-1.6-.3l-1.3-.4-1.1-.5-.8-.4Z"/><path class="a9bf28d8-3ffb-4a57-afbd-66738bb2f81c" d="M61,53.4c0,2.2.9,4,1.9,4s1.8-1.8,1.8-4-.8-4-1.8-4S61,51.2,61,53.4Z"/><path class="a9bf28d8-3ffb-4a57-afbd-66738bb2f81c" d="M86.3,53.4c0,2.2.8,4,1.8,4s1.8-1.8,1.8-4-.8-4-1.8-4S86.3,51.2,86.3,53.4Z"/><path class="a9bf28d8-3ffb-4a57-afbd-66738bb2f81c" d="M56.5,46.9a9,9,0,0,1,1.3-2.1l.9-.9,1.1-.7a6.1,6.1,0,0,1,1.4-.7,7.6,7.6,0,0,1,1.6-.3h1.6a8.3,8.3,0,0,1,1.5.4l1.2.7a7.6,7.6,0,0,1,.9.9,2.4,2.4,0,0,1,.6.8,2.1,2.1,0,0,1,.4.6l.3.6-.6-.3-.6-.3-.9-.5-.9-.4-1.1-.3-1.1-.2H62.9l-1.1.2-1.2.4-1,.4-1,.4-.8.5-.7.3Z"/><path class="a9bf28d8-3ffb-4a57-afbd-66738bb2f81c" d="M81.9,46.9a6.1,6.1,0,0,1,1.3-2.1l.9-.9,1.1-.7a6.1,6.1,0,0,1,1.4-.7,7.6,7.6,0,0,1,1.6-.3h1.6a5.7,5.7,0,0,1,1.4.4l1.3.7a7.6,7.6,0,0,1,.9.9,2.4,2.4,0,0,1,.6.8,2.1,2.1,0,0,1,.4.6l.3.6-.6-.3-.6-.3-.9-.5-.9-.4-1.1-.3-1.1-.2H88.3l-1.1.2-1.2.4-1,.4-1,.4-.8.5-.7.3Z"/><path class="e4816520-269d-4686-9bca-06b89a80c06e" d="M47.9,57.4s-7-29-3-37.3,8.7-5.7,8.7-5.7S59.9-2.9,73.2.4s21,9.4,28,3.4c0,0,0,5.3-4,7.6,0,0,8.4,0,11.7-8,0,0,5,17.1-6,23.1,0,0,.8,21.4,0,29.3l-3-.4s-1.7-11.3-2.7-25.6c0,0-17.3,9.3-38.3-7,0,0,3,11-9,18l1,15.3Z"/><path class="a23ac75f-2b63-4d87-bb72-98eefd33c43a" d="M90.6,31.9a54.2,54.2,0,0,1-14-3c-9-3.5-16.7-13.8-17.3-23.7a29.1,29.1,0,0,0-5.7,9.2s-4.7-2.6-8.7,5.7,3,37.3,3,37.3l3-1.3-1-15.3c12-7,9-18,9-18C72,32.9,83.7,33.1,90.6,31.9Z"/></g></g></svg>