<svg xmlns="http://www.w3.org/2000/svg" xmlns:xlink="http://www.w3.org/1999/xlink" viewBox="0 0 152.7 160.8"><defs><style>.a1789e3c-6a70-4ad3-8b6f-8ccc6b4d9d88,.aad61725-2e9f-4043-99e6-f07fcc3de942,.ad9d3a13-2f65-4ed8-9105-0a4d5b115e6f{fill:none;}.e108c9ff-7541-4ca3-af70-f3e45bd0b637{fill:#fddec0;}.acdd9ea5-3d5a-4b67-94cb-872290108478{fill:#e2c6af;}.a6d51924-2e98-4c26-a272-4c9e6d532929{fill:#fc6a5a;}.a188ea25-ee12-4734-91b4-609d007b5628{clip-path:url(#ad9afaef-192a-4787-9dad-e726cf77c07a);}.a1789e3c-6a70-4ad3-8b6f-8ccc6b4d9d88,.ad9d3a13-2f65-4ed8-9105-0a4d5b115e6f{stroke:#f99787;stroke-miterlimit:10;}.a1789e3c-6a70-4ad3-8b6f-8ccc6b4d9d88{stroke-width:3px;}.a926d9dc-874c-4eb1-85e8-a2175c30b4da{fill:#bc7068;}.a1351876-20ae-4a82-bd76-1d680ced4591{fill:#f99787;}.b44bdb3a-82c2-4c24-8bf4-3cd14a9b762b{fill:#fff;}.eb94a6aa-ec78-49aa-9dbf-a23e6284078b{fill:#352c38;}</style><clipPath id="ad9afaef-192a-4787-9dad-e726cf77c07a"><path class="aad61725-2e9f-4043-99e6-f07fcc3de942" d="M144.5,130.5c-5.8-15.6-40.2-23.3-48.3-28l-1.7.9-17.7,20L52.3,104.5c-12.2,4.8-39,12.4-44.1,26A172.9,172.9,0,0,0,0,160.8H152.7A172.9,172.9,0,0,0,144.5,130.5Z"/></clipPath></defs><title>Fichier 3avatar3</title><g id="e90acf33-ac02-4ac5-a85b-b5921191136e" data-name="Calque 2"><g id="a2661db9-c8e0-4d21-bb32-31fcb2a0a7d6" data-name="OBJECTS"><path class="e108c9ff-7541-4ca3-af70-f3e45bd0b637" d="M143.4,130.7c-5.9-16-42.3-23.6-48.6-28.2-8.2-6-5.6-25.7-5.6-25.7l-13.4.4-13.4-.4s2.6,19.7-5.5,25.7c-6.4,4.6-42.8,12.2-48.7,28.2A171,171,0,0,0,0,160.8H151.6A171,171,0,0,0,143.4,130.7Z"/><path class="acdd9ea5-3d5a-4b67-94cb-872290108478" d="M60,98.8c6.2-.6,12.5-1.9,18-5A59.4,59.4,0,0,0,88.8,86a56.7,56.7,0,0,1,.4-9.2l-13.4.4-13.4-.4S64.3,90.9,60,98.8Z"/><path class="a6d51924-2e98-4c26-a272-4c9e6d532929" d="M144.5,130.5c-5.8-15.6-40.2-23.3-48.3-28l-1.7.9-17.7,20L52.3,104.5c-12.2,4.8-39,12.4-44.1,26A172.9,172.9,0,0,0,0,160.8H152.7A172.9,172.9,0,0,0,144.5,130.5Z"/><g class="a188ea25-ee12-4734-91b4-609d007b5628"><line class="a1789e3c-6a70-4ad3-8b6f-8ccc6b4d9d88" x1="1.1" y1="149.2" x2="152.1" y2="149.2"/><line class="ad9d3a13-2f65-4ed8-9105-0a4d5b115e6f" x1="1.1" y1="153.9" x2="152.1" y2="153.9"/></g><polygon class="a926d9dc-874c-4eb1-85e8-a2175c30b4da" points="71.1 112.4 76.8 123.4 80.8 111.1 83.8 117.1 76.5 124.7 68.1 117.4 71.1 112.4"/><polygon class="a1351876-20ae-4a82-bd76-1d680ced4591" points="50.8 104.7 65.8 126.4 71.1 112.4 55.5 96.7 50.8 104.7"/><polygon class="a1351876-20ae-4a82-bd76-1d680ced4591" points="100.1 103.1 86.1 125.1 80.8 111.1 96.5 95.4 100.1 103.1"/><path class="acdd9ea5-3d5a-4b67-94cb-872290108478" d="M53.3,46.1c-2.1-6.7-7.2-5.1-7.7-5s-5.8.9-4.9,7.9,5,10.8,8.8,9.7S55.5,52.9,53.3,46.1Z"/><path class="acdd9ea5-3d5a-4b67-94cb-872290108478" d="M95.3,45.5c2.1-6.7,7.2-5.2,7.7-5s5.8.8,4.9,7.8-5,10.8-8.8,9.7S93.1,52.2,95.3,45.5Z"/><path class="e108c9ff-7541-4ca3-af70-f3e45bd0b637" d="M102.1,35.6C99.4,6.2,77,7.8,74.9,8.1S50.5,6.2,47.8,35.6,58.3,84.5,74.9,83.4C91.6,84.5,104.8,65.1,102.1,35.6Z"/><path class="acdd9ea5-3d5a-4b67-94cb-872290108478" d="M78.1,45.6a16.2,16.2,0,0,1,1.1,2.8,8.3,8.3,0,0,0,.4,1.5l.3,1.4c.2,1,.3,1.9.5,2.9s.2,2,.2,2.9v.5l-.3.3a39.4,39.4,0,0,1-4,2.6,22.8,22.8,0,0,1,2.8-3.9l-.2.8c-.2-1-.5-1.9-.6-2.9s-.3-2-.4-2.9V50.1a7.6,7.6,0,0,1-.1-1.5C77.9,47.6,78,46.6,78.1,45.6Z"/><path class="b44bdb3a-82c2-4c24-8bf4-3cd14a9b762b" d="M62,64.8l26.5-.3S77.9,74.9,62,64.8Z"/><path class="acdd9ea5-3d5a-4b67-94cb-872290108478" d="M68.8,70.1l.8.2a14.3,14.3,0,0,0,2,.5l1.3.3,1.5.2a8.5,8.5,0,0,0,1.6,0h1.6l1.7-.3a8.3,8.3,0,0,0,1.5-.4,3.4,3.4,0,0,0,1.4-.5l1.3-.5,1-.6.8-.4.6-.4-.5.5-.7.6a3.4,3.4,0,0,1-.9.8l-1.2.7-1.5.7-.8.2-.4.2h-.4l-1.8.3H76a4.7,4.7,0,0,1-1.7-.2,7.6,7.6,0,0,1-1.6-.3l-1.3-.4-1.1-.5-.8-.4Z"/><ellipse class="eb94a6aa-ec78-49aa-9dbf-a23e6284078b" cx="62.9" cy="46.1" rx="1.8" ry="4"/><path class="eb94a6aa-ec78-49aa-9dbf-a23e6284078b" d="M86.3,46.1c0,2.2.8,4,1.8,4s1.8-1.8,1.8-4-.8-4-1.8-4S86.3,43.8,86.3,46.1Z"/><path class="eb94a6aa-ec78-49aa-9dbf-a23e6284078b" d="M56.5,39.5a9,9,0,0,1,1.3-2.1l.9-.8,1.1-.8a5.9,5.9,0,0,1,1.4-.6,4.1,4.1,0,0,1,1.6-.3h1.6l1.5.5a3.7,3.7,0,0,1,1.2.7c.4.2.6.6.9.8s.5.5.6.8l.4.7a2.8,2.8,0,0,1,.3.6l-.6-.3-.6-.4-.9-.4-.9-.4-1.1-.4a3.7,3.7,0,0,0-1.1-.1H61.8l-1.2.4-1,.4-1,.5-.8.4-.7.4Z"/><path class="eb94a6aa-ec78-49aa-9dbf-a23e6284078b" d="M81.9,39.5a6.1,6.1,0,0,1,1.3-2.1l.9-.8,1.1-.8a5.9,5.9,0,0,1,1.4-.6,4.1,4.1,0,0,1,1.6-.3h1.6l1.4.5a3.3,3.3,0,0,1,1.3.7c.4.2.6.6.9.8s.5.5.6.8l.4.7.3.6-.6-.3-.6-.4-.9-.4-.9-.4-1.1-.4c-.4,0-.7-.2-1.1-.1H87.2l-1.2.4-1,.4-1,.5-.8.4-.7.4Z"/><path class="eb94a6aa-ec78-49aa-9dbf-a23e6284078b" d="M57.1,24.1s8,10.6,20.7,12.3l-3-4.3a37.5,37.5,0,0,0,13.7,5.3,16.6,16.6,0,0,0-2.4-12.3s5.7,12.3,12.4,17c0,0,2.6-8.7-.7-13.7,0,0,2.1,2.4,8.4,10,0,0,7.1-21.5-10.2-33.2S60.2,4.1,54.2,10.4c0,0-10.7-3.6-13.2,10.7A37.2,37.2,0,0,0,43.5,42s3.7-2.4,3.7,5.2l.9,7.9h2.4l.3-15.7S56.7,37.1,57.1,24.1Z"/><path class="eb94a6aa-ec78-49aa-9dbf-a23e6284078b" d="M99.2,54.6h2.5c2.3-8.3.8-23.2.8-23.2s-7.8-15.5-4.7-3C100.4,38.7,99.5,51.4,99.2,54.6Z"/></g></g></svg>